<?xml version="1.0" encoding="utf-8"?>
<!-- Generator: Adobe Illustrator 21.1.0, SVG Export Plug-In . SVG Version: 6.00 Build 0)  -->
<svg version="1.1" id="Calque_1" xmlns="http://www.w3.org/2000/svg" xmlns:xlink="http://www.w3.org/1999/xlink" x="0px" y="0px"
	 viewBox="0 0 410 60" style="enable-background:new 0 0 410 60;" xml:space="preserve">
<style type="text/css">
	.st0{fill:#0064D7;}
</style>
<g>
	<path class="st0" d="M40.6,47.6H20.5L17.2,57h-15L22.8,2.7h15.4L58.9,57h-15L40.6,47.6z M36.9,36.8l-6.3-18.1l-6.3,18.1H36.9z"/>
	<path class="st0" d="M103.7,57H89.6V2.7H112c6.1,0,10.8,1.6,14,4.8c3.2,3.2,4.9,7.6,4.9,13.4c0,5.8-1.6,10.2-4.9,13.4
		c-3.2,3.2-7.9,4.8-14,4.8h-8.4V57z M103.7,27.6h4.7c5.2,0,7.8-2.3,7.8-6.8c0-4.5-2.6-6.8-7.8-6.8h-4.7V27.6z"/>
	<path class="st0" d="M183.5,57H166l-13.5-20.9V57h-14.1V2.7h22c3,0,5.7,0.4,7.9,1.3c2.3,0.9,4.1,2.1,5.6,3.6
		c1.5,1.5,2.6,3.3,3.3,5.3c0.7,2,1.1,4.2,1.1,6.5c0,4.1-1,7.5-3,10c-2,2.6-4.9,4.3-8.8,5.2L183.5,57z M152.5,27h2.7
		c2.8,0,4.9-0.6,6.4-1.7c1.5-1.2,2.2-2.8,2.2-5c0-2.2-0.7-3.8-2.2-5c-1.5-1.2-3.6-1.7-6.4-1.7h-2.7V27z"/>
	<path class="st0" d="M186,29.9c0-4,0.7-7.8,2.2-11.3c1.5-3.5,3.6-6.5,6.2-9.1c2.6-2.6,5.8-4.6,9.5-6.1c3.7-1.5,7.7-2.2,12.1-2.2
		c4.4,0,8.4,0.7,12.1,2.2c3.7,1.5,6.9,3.5,9.5,6.1s4.7,5.6,6.2,9.1c1.5,3.5,2.2,7.2,2.2,11.3c0,4-0.7,7.8-2.2,11.3
		c-1.5,3.5-3.6,6.5-6.2,9.1c-2.7,2.6-5.8,4.6-9.5,6.1c-3.7,1.5-7.7,2.2-12.1,2.2c-4.4,0-8.5-0.7-12.1-2.2c-3.7-1.5-6.8-3.5-9.5-6.1
		c-2.6-2.6-4.7-5.6-6.2-9.1C186.7,37.6,186,33.9,186,29.9z M200.7,29.9c0,2.2,0.4,4.2,1.2,6c0.8,1.8,1.9,3.4,3.3,4.8
		c1.4,1.3,3,2.4,4.9,3.1c1.8,0.7,3.8,1.1,5.9,1.1c2.1,0,4-0.4,5.9-1.1c1.8-0.7,3.5-1.8,4.9-3.1c1.4-1.3,2.5-2.9,3.3-4.8
		c0.8-1.8,1.2-3.8,1.2-6s-0.4-4.2-1.2-6c-0.8-1.8-1.9-3.4-3.3-4.8c-1.4-1.3-3-2.4-4.9-3.1c-1.8-0.7-3.8-1.1-5.9-1.1
		c-2.1,0-4,0.4-5.9,1.1c-1.8,0.7-3.5,1.8-4.9,3.1c-1.4,1.3-2.5,2.9-3.3,4.8C201.2,25.7,200.7,27.7,200.7,29.9z"/>
	<path class="st0" d="M269.1,57H255V2.7h22.5c6.1,0,10.8,1.6,14,4.8c3.2,3.2,4.9,7.6,4.9,13.4c0,5.8-1.6,10.2-4.9,13.4
		c-3.2,3.2-7.9,4.8-14,4.8h-8.4V57z M269.1,27.6h4.7c5.2,0,7.8-2.3,7.8-6.8c0-4.5-2.6-6.8-7.8-6.8h-4.7V27.6z"/>
	<path class="st0" d="M301.4,29.9c0-4,0.7-7.8,2.2-11.3c1.5-3.5,3.6-6.5,6.2-9.1c2.6-2.6,5.8-4.6,9.5-6.1c3.7-1.5,7.7-2.2,12.1-2.2
		c4.4,0,8.4,0.7,12.1,2.2c3.7,1.5,6.9,3.5,9.5,6.1s4.7,5.6,6.2,9.1c1.5,3.5,2.2,7.2,2.2,11.3c0,4-0.7,7.8-2.2,11.3
		c-1.5,3.5-3.6,6.5-6.2,9.1c-2.7,2.6-5.8,4.6-9.5,6.1c-3.7,1.5-7.7,2.2-12.1,2.2c-4.4,0-8.5-0.7-12.1-2.2c-3.7-1.5-6.8-3.5-9.5-6.1
		c-2.6-2.6-4.7-5.6-6.2-9.1C302.1,37.6,301.4,33.9,301.4,29.9z M316.2,29.9c0,2.2,0.4,4.2,1.2,6c0.8,1.8,1.9,3.4,3.3,4.8
		c1.4,1.3,3,2.4,4.9,3.1c1.8,0.7,3.8,1.1,5.9,1.1c2.1,0,4-0.4,5.9-1.1c1.8-0.7,3.5-1.8,4.9-3.1c1.4-1.3,2.5-2.9,3.3-4.8
		c0.8-1.8,1.2-3.8,1.2-6s-0.4-4.2-1.2-6c-0.8-1.8-1.9-3.4-3.3-4.8c-1.4-1.3-3-2.4-4.9-3.1c-1.8-0.7-3.8-1.1-5.9-1.1
		c-2.1,0-4,0.4-5.9,1.1c-1.8,0.7-3.5,1.8-4.9,3.1c-1.4,1.3-2.5,2.9-3.3,4.8C316.6,25.7,316.2,27.7,316.2,29.9z"/>
	<path class="st0" d="M400.3,16.6c-1.5-1.2-3.1-2.2-4.6-2.8c-1.5-0.6-3-0.9-4.5-0.9c-1.8,0-3.3,0.4-4.5,1.3c-1.2,0.9-1.7,2-1.7,3.4
		c0,1,0.3,1.8,0.9,2.4c0.6,0.6,1.3,1.2,2.3,1.6c0.9,0.5,2,0.9,3.2,1.2c1.2,0.3,2.3,0.7,3.5,1.1c4.6,1.5,8,3.6,10.1,6.2
		c2.1,2.6,3.2,5.9,3.2,10c0,2.8-0.5,5.3-1.4,7.6c-0.9,2.3-2.3,4.2-4.1,5.8c-1.8,1.6-4,2.9-6.6,3.7c-2.6,0.9-5.6,1.3-8.9,1.3
		c-6.9,0-13.2-2-19.1-6.1l6-11.4c2.1,1.9,4.2,3.3,6.3,4.2c2.1,0.9,4.1,1.4,6.1,1.4c2.3,0,4-0.5,5.1-1.6c1.1-1.1,1.7-2.3,1.7-3.6
		c0-0.8-0.1-1.5-0.4-2.1c-0.3-0.6-0.8-1.2-1.4-1.7c-0.7-0.5-1.5-1-2.6-1.4s-2.4-0.9-3.9-1.4c-1.8-0.6-3.6-1.2-5.4-1.9
		c-1.8-0.7-3.3-1.6-4.7-2.8c-1.4-1.2-2.5-2.6-3.3-4.4c-0.8-1.8-1.3-4-1.3-6.7c0-2.7,0.4-5.1,1.3-7.3c0.9-2.2,2.1-4.1,3.7-5.6
		c1.6-1.6,3.6-2.8,5.9-3.6c2.3-0.9,4.9-1.3,7.8-1.3c2.7,0,5.5,0.4,8.4,1.1c2.9,0.7,5.7,1.8,8.4,3.3L400.3,16.6z"/>
</g>
</svg>
