<?xml version="1.0" encoding="utf-8"?>
<!-- Generator: Adobe Illustrator 21.1.0, SVG Export Plug-In . SVG Version: 6.00 Build 0)  -->
<svg version="1.1" id="Calque_1" xmlns="http://www.w3.org/2000/svg" xmlns:xlink="http://www.w3.org/1999/xlink" x="0px" y="0px"
	 viewBox="0 0 64 41" style="enable-background:new 0 0 64 41;" xml:space="preserve">
<style type="text/css">
	.st0{fill:#FFFFFF;}
</style>
<g>
	<path class="st0" d="M27.3,16c-1.6-2-3.6-3-6-3c-1.1,0-2,0.2-2.9,0.6c-0.9,0.4-1.7,0.9-2.3,1.6c-0.6,0.7-1.2,1.4-1.5,2.4
		c-0.4,0.9-0.6,1.9-0.6,3c0,1.1,0.2,2.1,0.6,3c0.4,0.9,0.9,1.7,1.5,2.4c0.7,0.7,1.4,1.2,2.3,1.6c0.9,0.4,1.8,0.6,2.9,0.6
		c2.3,0,4.3-1,6.1-2.9v8.4l-0.7,0.3c-1.1,0.4-2.1,0.7-3,0.8c-0.9,0.2-1.9,0.3-2.8,0.3c-1.9,0-3.7-0.4-5.4-1.1
		c-1.7-0.7-3.2-1.7-4.5-3c-1.3-1.3-2.4-2.8-3.1-4.6c-0.8-1.8-1.2-3.7-1.2-5.8s0.4-4,1.2-5.7c0.8-1.7,1.8-3.2,3.1-4.5
		c1.3-1.3,2.8-2.2,4.6-3c1.7-0.7,3.5-1.1,5.4-1.1c1.1,0,2.1,0.1,3.2,0.3c1,0.2,2.1,0.6,3.3,1.1V16z"/>
	<path class="st0" d="M36.6,6.9l6.6,16.5l6.6-16.5h7.7L46,34.1h-5.6L29,6.9H36.6z"/>
</g>
</svg>
