<?xml version="1.0" encoding="utf-8"?>
<!-- Generator: Adobe Illustrator 21.1.0, SVG Export Plug-In . SVG Version: 6.00 Build 0)  -->
<svg version="1.1" id="Calque_1" xmlns="http://www.w3.org/2000/svg" xmlns:xlink="http://www.w3.org/1999/xlink" x="0px" y="0px"
	 viewBox="0 0 24 20.7" style="enable-background:new 0 0 24 20.7;" xml:space="preserve">
<style type="text/css">
	.st0{fill:#FFFFFF;}
</style>
<title>Iconsset_solid</title>
<path class="st0" d="M21,1.5H3C2.2,1.5,1.5,2.2,1.5,3v12c0,0.8,0.7,1.5,1.5,1.5h6.4c-0.3,0.4-0.7,0.8-1.1,1c-0.5,0.3-0.9,0.5-1,1
	c0,0.3,0.1,0.6,0.3,0.8c0.1,0.1,0.2,0.2,0.4,0.2h8c0.1,0,0.3-0.1,0.4-0.1c0.2-0.2,0.4-0.5,0.4-0.9c-0.1-0.5-0.5-0.7-1-1
	c-0.5-0.2-0.9-0.6-1.1-1H21c0.8,0,1.5-0.7,1.5-1.5V3C22.5,2.2,21.8,1.5,21,1.5z M21.5,13.5h-19V3c0-0.3,0.2-0.5,0.5-0.5h18
	c0.3,0,0.5,0.2,0.5,0.5V13.5z"/>
</svg>
