<?xml version="1.0" encoding="utf-8"?>
<!-- Generator: Adobe Illustrator 21.1.0, SVG Export Plug-In . SVG Version: 6.00 Build 0)  -->
<svg version="1.1" id="Calque_1" xmlns="http://www.w3.org/2000/svg" xmlns:xlink="http://www.w3.org/1999/xlink" x="0px" y="0px"
	 viewBox="0 0 500 58" style="enable-background:new 0 0 500 58;" xml:space="preserve">
<style type="text/css">
	.st0{fill:#0064D7;}
</style>
<g>
	<path class="st0" d="M30.9,13.5H14.1v9.1H30v12H14.1v9.4h16.8v12H0V1.5h30.9V13.5z"/>
	<path class="st0" d="M56.6,26.9L39.7,1.5h17.4l7.3,14l9.1-14h17.4L73,26.9l20.2,28.9H76L65.2,38.1L52.4,55.8H35.4L56.6,26.9z"/>
	<path class="st0" d="M113,55.8H98.9V1.5h22.5c6.1,0,10.8,1.6,14,4.8c3.2,3.2,4.9,7.6,4.9,13.4c0,5.8-1.6,10.2-4.9,13.4
		c-3.2,3.2-7.9,4.8-14,4.8H113V55.8z M113,26.4h4.7c5.2,0,7.8-2.3,7.8-6.8c0-4.5-2.6-6.8-7.8-6.8H113V26.4z"/>
	<path class="st0" d="M178.6,13.5h-16.8v9.1h15.8v12h-15.8v9.4h16.8v12h-30.9V1.5h30.9V13.5z"/>
	<path class="st0" d="M233.9,55.8h-17.6l-13.5-20.9v20.9h-14.1V1.5h22c3,0,5.7,0.4,7.9,1.3c2.3,0.9,4.1,2.1,5.6,3.6
		c1.5,1.5,2.6,3.3,3.3,5.3c0.7,2,1.1,4.2,1.1,6.5c0,4.1-1,7.5-3,10c-2,2.6-4.9,4.3-8.8,5.2L233.9,55.8z M202.9,25.8h2.7
		c2.8,0,4.9-0.6,6.4-1.7c1.5-1.2,2.2-2.8,2.2-5c0-2.2-0.7-3.8-2.2-5c-1.5-1.2-3.6-1.7-6.4-1.7h-2.7V25.8z"/>
	<path class="st0" d="M253.9,1.5v54.3h-14.1V1.5H253.9z"/>
	<path class="st0" d="M296.2,13.5h-16.8v9.1h15.8v12h-15.8v9.4h16.8v12h-30.9V1.5h30.9V13.5z"/>
	<path class="st0" d="M306.4,55.8V1.5h14.1l26.1,33.2V1.5h14v54.3h-14l-26.1-33.2v33.2H306.4z"/>
	<path class="st0" d="M411.8,19.7c-3.3-4-7.3-6-12.1-6c-2.1,0-4.1,0.4-5.9,1.2c-1.8,0.8-3.3,1.8-4.6,3.1c-1.3,1.3-2.3,2.9-3.1,4.7
		c-0.7,1.8-1.1,3.8-1.1,5.9c0,2.2,0.4,4.2,1.1,6c0.7,1.8,1.8,3.4,3.1,4.8c1.3,1.3,2.9,2.4,4.6,3.2c1.8,0.8,3.7,1.2,5.8,1.2
		c4.5,0,8.6-1.9,12.2-5.8v16.7l-1.4,0.5c-2.2,0.8-4.2,1.3-6,1.7c-1.9,0.4-3.7,0.5-5.5,0.5c-3.7,0-7.3-0.7-10.8-2.1
		c-3.4-1.4-6.5-3.4-9.1-6c-2.6-2.6-4.7-5.6-6.3-9.1s-2.4-7.4-2.4-11.6c0-4.2,0.8-8,2.3-11.5c1.6-3.5,3.6-6.5,6.3-9s5.7-4.5,9.1-5.9
		C391.4,0.7,395,0,398.8,0c2.2,0,4.3,0.2,6.4,0.7c2.1,0.5,4.3,1.2,6.6,2.1V19.7z"/>
	<path class="st0" d="M451.6,13.5h-16.8v9.1h15.8v12h-15.8v9.4h16.8v12h-30.9V1.5h30.9V13.5z"/>
	<path class="st0" d="M491.5,15.4c-1.5-1.2-3.1-2.2-4.6-2.8c-1.5-0.6-3-0.9-4.5-0.9c-1.8,0-3.3,0.4-4.5,1.3c-1.2,0.9-1.7,2-1.7,3.4
		c0,1,0.3,1.8,0.9,2.4c0.6,0.6,1.3,1.2,2.3,1.6c0.9,0.5,2,0.9,3.2,1.2c1.2,0.3,2.3,0.7,3.5,1.1c4.6,1.5,8,3.6,10.1,6.2
		c2.1,2.6,3.2,5.9,3.2,10c0,2.8-0.5,5.3-1.4,7.6c-0.9,2.3-2.3,4.2-4.1,5.8c-1.8,1.6-4,2.9-6.6,3.7c-2.6,0.9-5.6,1.3-8.9,1.3
		c-6.9,0-13.2-2-19.1-6.1l6-11.4c2.1,1.9,4.2,3.3,6.3,4.2c2.1,0.9,4.1,1.4,6.1,1.4c2.3,0,4-0.5,5.1-1.6c1.1-1.1,1.7-2.3,1.7-3.6
		c0-0.8-0.1-1.5-0.4-2.1c-0.3-0.6-0.8-1.2-1.4-1.7c-0.7-0.5-1.5-1-2.6-1.4s-2.4-0.9-3.9-1.4c-1.8-0.6-3.6-1.2-5.4-1.9
		c-1.8-0.7-3.3-1.6-4.7-2.8c-1.4-1.2-2.5-2.6-3.3-4.4c-0.8-1.8-1.3-4-1.3-6.7c0-2.7,0.4-5.1,1.3-7.3c0.9-2.2,2.1-4.1,3.7-5.6
		c1.6-1.6,3.6-2.8,5.9-3.6c2.3-0.9,4.9-1.3,7.8-1.3c2.7,0,5.5,0.4,8.4,1.1c2.9,0.7,5.7,1.8,8.4,3.3L491.5,15.4z"/>
</g>
</svg>
