<?xml version="1.0" encoding="UTF-8"?>
<svg width="966px" height="837px" viewBox="0 0 966 837" version="1.1" xmlns="http://www.w3.org/2000/svg" xmlns:xlink="http://www.w3.org/1999/xlink">
    <!-- Generator: Sketch 50 (54983) - http://www.bohemiancoding.com/sketch -->
    <title>Group</title>
    <desc>Created with Sketch.</desc>
    <defs></defs>
    <g id="Page-1" stroke="none" stroke-width="1" fill="none" fill-rule="evenodd">
        <g id="Tablet" transform="translate(-104.000000, -71.000000)" fill="#FF0000">
            <g id="Group" transform="translate(104.000000, 71.000000)">
                <path d="M479.127793,0 C664.127793,0 641.127793,100 672.127793,180 C703.127793,260 899.113859,249.295496 947.113859,429.295496 C995.113859,609.295496 938.113859,752.295496 894.113859,752.295496 C850.113859,752.295496 594.127793,727.295496 479.127793,752.295496 C364.127793,777.295496 296.113859,836.295496 184.113859,836.295496 C72.1138586,836.295496 -31.8722066,738 9.12779335,540 C50.1277934,342 118.113859,451.295496 231.113859,244.295496 C344.113859,37.2954956 294.127793,1.92181132e-14 479.127793,0 Z" id="Path-2" opacity="0.201339286"></path>
                <path d="M473.963543,61 C632.257962,61 612.578116,146.564551 639.103126,215.016191 C665.628137,283.467832 833.322733,274.308571 874.393717,428.324762 C915.464702,582.340953 866.692908,704.69826 829.044505,704.69826 C791.396103,704.69826 572.362777,683.307123 473.963543,704.69826 C375.56431,726.089398 317.368493,776.572483 221.536196,776.572483 C125.703899,776.572483 36.7286896,692.466384 71.8101554,523.048574 C106.891621,353.630763 165.063592,447.148963 261.751535,270.030343 C358.439477,92.9117232 315.669125,61 473.963543,61 Z" id="Path-2-Copy" opacity="0.397767857"></path>
                <path d="M474.41938,115 C608.950471,115 592.224984,187.719509 614.768032,245.895116 C637.31108,304.070724 779.831185,296.286461 814.736549,427.181577 C849.641913,558.076694 808.191793,662.065592 776.195209,662.065592 C744.198625,662.065592 558.046815,643.885714 474.41938,662.065592 C390.791944,680.245469 341.332544,723.149979 259.886694,723.149979 C178.440844,723.149979 102.822688,651.669978 132.637687,507.685349 C162.452685,363.700721 211.891818,443.179869 294.064864,292.650485 C376.237909,142.121101 339.888288,115 474.41938,115 Z" id="Path-2-Copy-2" opacity="0.282924107"></path>
                <path d="M475.437709,175 C582.947599,175 569.581505,233.113454 587.596675,279.604217 C605.611846,326.09498 719.506118,319.874223 747.400576,424.47844 C775.295033,529.082657 742.170365,612.184896 716.600445,612.184896 C691.030525,612.184896 542.268181,597.656533 475.437709,612.184896 C408.607237,626.713259 369.081991,661.000197 303.994922,661.000197 C238.907854,661.000197 178.47796,603.87729 202.304476,488.812651 C226.130992,373.748012 265.640043,437.2634 331.308246,316.96855 C396.976449,196.673701 367.92782,175 475.437709,175 Z" id="Path-2-Copy-3" opacity="0.599776786"></path>
            </g>
        </g>
    </g>
</svg>