<?xml version="1.0" encoding="UTF-8"?>
<svg width="1122px" height="902px" viewBox="0 0 1122 902" version="1.1" xmlns="http://www.w3.org/2000/svg" xmlns:xlink="http://www.w3.org/1999/xlink">
    <!-- Generator: Sketch 50 (54983) - http://www.bohemiancoding.com/sketch -->
    <title>Group</title>
    <desc>Created with Sketch.</desc>
    <defs></defs>
    <g id="Page-1" stroke="none" stroke-width="1" fill="none" fill-rule="evenodd">
        <g id="Tablet-Copy" transform="translate(-15.000000, -70.000000)" fill="#FF0000">
            <g id="Group" transform="translate(-34.000000, 25.000000)">
                <path d="M619.165411,47.9396883 C804.165411,47.9396883 829.900004,122.696673 860.900004,202.696673 C891.900004,282.696673 1097.30366,271.430592 1145.30366,451.430592 C1193.30366,631.430592 1127.68093,834.517579 1083.68093,834.517579 C1039.68093,834.517579 847.572427,806.906521 732.572427,831.906521 C617.572427,856.906521 496.78984,928.964606 384.78984,928.964606 C272.78984,928.964606 0.0118995517,776.669406 41.0118996,578.669406 C82.0118996,380.669406 221.586773,482.100972 334.586773,275.100972 C447.586773,68.1009722 434.165411,47.9396883 619.165411,47.9396883 Z" id="Path-2" opacity="0.201339286" transform="translate(599.482251, 488.452147) rotate(-5.000000) translate(-599.482251, -488.452147) "></path>
                <path d="M609.154968,113.397876 C767.449386,113.397876 792.322525,159.009651 818.847536,227.461291 C845.372546,295.912932 1060.65962,248.836581 1101.7306,402.852772 C1142.80158,556.868963 1012.34874,705.790575 974.700339,705.790575 C937.051936,705.790575 753.873643,692.813727 655.47441,714.204865 C557.075177,735.596003 519.34043,876.340138 423.508134,876.340138 C327.675837,876.340138 210.927176,753.711838 246.008642,584.294027 C281.090108,414.876217 237.82743,455.485273 334.515373,278.366653 C431.203315,101.248033 450.860549,113.397876 609.154968,113.397876 Z" id="Path-2-Copy" opacity="0.397767857" transform="translate(674.635086, 494.780588) rotate(6.000000) translate(-674.635086, -494.780588) "></path>
                <path d="M608.692344,162.147284 C743.223436,162.147284 744.310596,214.569008 766.853644,272.744616 C789.396692,330.920223 984.990962,307.24418 1019.89633,438.139297 C1054.80169,569.034413 1055.14312,710.775384 1023.14653,710.775384 C991.14995,710.775384 840.351949,803.893784 756.724513,822.073662 C673.097077,840.253539 558.55127,842.301432 477.10542,842.301432 C395.659569,842.301432 171.297307,822.701827 201.112306,678.717199 C230.927305,534.732571 191.439206,402.228131 273.612251,251.698748 C355.785297,101.169364 474.161252,162.147284 608.692344,162.147284 Z" id="Path-2-Copy-2" opacity="0.282924107" transform="translate(622.515446, 496.116880) rotate(7.000000) translate(-622.515446, -496.116880) "></path>
                <path d="M613.437709,221 C720.947599,221 707.581505,279.113454 725.596675,325.604217 C743.611846,372.09498 857.506118,365.874223 885.400576,470.47844 C913.295033,575.082657 880.170365,658.184896 854.600445,658.184896 C829.030525,658.184896 680.268181,643.656533 613.437709,658.184896 C546.607237,672.713259 507.081991,707.000197 441.994922,707.000197 C376.907854,707.000197 316.47796,649.87729 340.304476,534.812651 C364.130992,419.748012 403.640043,483.2634 469.308246,362.96855 C534.976449,242.673701 505.92782,221 613.437709,221 Z" id="Path-2-Copy-3" opacity="0.599776786"></path>
            </g>
        </g>
    </g>
</svg>