<?xml version="1.0" encoding="utf-8"?>
<!-- Generator: Adobe Illustrator 21.1.0, SVG Export Plug-In . SVG Version: 6.00 Build 0)  -->
<svg version="1.1" id="Calque_1" xmlns="http://www.w3.org/2000/svg" xmlns:xlink="http://www.w3.org/1999/xlink" x="0px" y="0px"
	 viewBox="0 0 235 60" style="enable-background:new 0 0 235 60;" xml:space="preserve">
<style type="text/css">
	.st0{fill:#0064D7;}
</style>
<g>
	<path class="st0" d="M15.5,23.7h20.4v-21H50V57H35.8V34.6H15.5V57H1.4V2.7h14.1V23.7z"/>
	<path class="st0" d="M58.9,29.9c0-4,0.7-7.8,2.2-11.3c1.5-3.5,3.6-6.5,6.2-9.1c2.6-2.6,5.8-4.6,9.5-6.1c3.7-1.5,7.7-2.2,12.1-2.2
		c4.4,0,8.4,0.7,12.1,2.2c3.7,1.5,6.9,3.5,9.5,6.1s4.7,5.6,6.2,9.1c1.5,3.5,2.2,7.2,2.2,11.3c0,4-0.7,7.8-2.2,11.3
		c-1.5,3.5-3.6,6.5-6.2,9.1c-2.7,2.6-5.8,4.6-9.5,6.1c-3.7,1.5-7.7,2.2-12.1,2.2c-4.4,0-8.5-0.7-12.1-2.2c-3.7-1.5-6.8-3.5-9.5-6.1
		c-2.6-2.6-4.7-5.6-6.2-9.1C59.6,37.6,58.9,33.9,58.9,29.9z M73.6,29.9c0,2.2,0.4,4.2,1.2,6c0.8,1.8,1.9,3.4,3.3,4.8
		c1.4,1.3,3,2.4,4.9,3.1c1.8,0.7,3.8,1.1,5.9,1.1c2.1,0,4-0.4,5.9-1.1c1.8-0.7,3.5-1.8,4.9-3.1c1.4-1.3,2.5-2.9,3.3-4.8
		c0.8-1.8,1.2-3.8,1.2-6s-0.4-4.2-1.2-6c-0.8-1.8-1.9-3.4-3.3-4.8c-1.4-1.3-3-2.4-4.9-3.1c-1.8-0.7-3.8-1.1-5.9-1.1
		c-2.1,0-4,0.4-5.9,1.1c-1.8,0.7-3.5,1.8-4.9,3.1c-1.4,1.3-2.5,2.9-3.3,4.8C74,25.7,73.6,27.7,73.6,29.9z"/>
	<path class="st0" d="M125.5,57l9.2-54.3h14l10.9,28.9l10.8-28.9h14l9.2,54.3h-14l-4.7-31.2L162,57h-5.6l-12.2-31.2L139.5,57H125.5z
		"/>
	<path class="st0" d="M233.3,14.7h-16.8v9.1h15.8v12h-15.8V45h16.8v12h-30.9V2.7h30.9V14.7z"/>
</g>
</svg>
