<?xml version="1.0" encoding="utf-8"?>
<!-- Generator: Adobe Illustrator 21.1.0, SVG Export Plug-In . SVG Version: 6.00 Build 0)  -->
<svg version="1.1" id="Calque_1" xmlns="http://www.w3.org/2000/svg" xmlns:xlink="http://www.w3.org/1999/xlink" x="0px" y="0px"
	 viewBox="0 0 94.2 102" style="enable-background:new 0 0 94.2 102;" xml:space="preserve">
<style type="text/css">
	.st0{fill:#FFFFFF;}
</style>
<path class="st0" d="M69.8,27.8c-3.4-1.7-8.8-3-14.7-3c-19,0-32.1,15.9-32.1,33.6c0,11.4,6.6,18,14.5,18c7.1,0,13.5-3,18.7-10.9
	c0.1,7.6,4.7,10.9,10.9,10.9c12.6,0,25.6-12.1,25.6-35.1c0-24.4-17.2-40.4-41.3-40.4C20.7,0.8,0.9,25.2,0.9,55.6
	c0,28,19.5,45.2,42.2,45.2c9.2,0,17.2-1.3,24.5-5.5L64.7,86c-5.4,2.9-12.5,4.3-20.4,4.3c-18.6,0-34.2-12.6-34.2-35.5
	c0-27.8,18.5-43.8,40.1-43.8c20.4,0,33.6,11.7,33.6,30.9c0,16.8-8.7,24.4-14.7,24.2c-3.9-0.1-5.6-2.5-4.2-10.6L69.8,27.8z
	 M57.6,47.8c-1.8,10.2-9.2,18.5-17,18.5c-5.8,0-8.4-3.7-8.4-9.3c0-12.8,8.8-22.4,20.3-22.4c3.1,0,5.8,0.4,7.5,1L57.6,47.8z"/>
</svg>
