<?xml version="1.0" encoding="utf-8"?>
<!-- Generator: Adobe Illustrator 21.1.0, SVG Export Plug-In . SVG Version: 6.00 Build 0)  -->
<svg version="1.1" id="Calque_1" xmlns="http://www.w3.org/2000/svg" xmlns:xlink="http://www.w3.org/1999/xlink" x="0px" y="0px"
	 viewBox="0 0 24 24.1" style="enable-background:new 0 0 24 24.1;" xml:space="preserve">
<style type="text/css">
	.st0{fill:#FFFFFF;}
</style>
<g>
	<path class="st0" d="M17.3,13.8c-0.8,0-1.5-0.1-2.2-0.4c-0.4-0.1-0.9,0-1.1,0.2l-1.4,1c-1.6-0.8-2.5-1.8-3.4-3.4l1-1.3
		c0.3-0.3,0.4-0.8,0.3-1.2c-0.2-0.7-0.4-1.5-0.4-2.2C10.2,6,9.6,5.5,9,5.5H6.7C6,5.5,5.5,6,5.5,6.7c0,6.5,5.3,11.8,11.8,11.8
		c0.6,0,1.2-0.5,1.2-1.2V15C18.5,14.4,18,13.8,17.3,13.8z"/>
	<g>
		<path class="st0" d="M12,23.5C5.7,23.5,0.5,18.3,0.5,12S5.7,0.5,12,0.5S23.5,5.7,23.5,12c0,0.3-0.2,0.5-0.5,0.5s-0.5-0.2-0.5-0.5
			c0-5.8-4.7-10.5-10.5-10.5S1.5,6.2,1.5,12S6.2,22.5,12,22.5c3.5,0,6.9-1.8,8-4.2c0.2-0.5,0.2-0.8,0.1-1.1
			c-0.3-0.4-1.1-0.7-2.1-0.6c-0.3,0-0.5-0.2-0.5-0.5c0-0.3,0.2-0.5,0.5-0.5c1.4-0.1,2.5,0.3,3,1c0.3,0.4,0.5,1.1,0,2.1
			C19.6,21.5,15.9,23.5,12,23.5z"/>
	</g>
</g>
</svg>
