<?xml version="1.0" encoding="utf-8"?>
<!-- Generator: Adobe Illustrator 21.1.0, SVG Export Plug-In . SVG Version: 6.00 Build 0)  -->
<svg version="1.1" id="Calque_1" xmlns="http://www.w3.org/2000/svg" xmlns:xlink="http://www.w3.org/1999/xlink" x="0px" y="0px"
	 viewBox="0 0 46.8 77.5" style="enable-background:new 0 0 46.8 77.5;" xml:space="preserve">
<style type="text/css">
	.st0{fill:#FFFFFF;stroke:#FFFFFF;stroke-miterlimit:10;}
	.st1{fill:#FFFFFF;}
</style>
<path class="st0" d="M34.8,73.3h-22c-4.1,0-7.3-3.3-7.3-7.3V11.1c0-4.1,3.3-7.3,7.3-7.3h22c4.1,0,7.3,3.3,7.3,7.3V66
	C42.2,70,38.8,73.3,34.8,73.3z M39.7,64.5V12c0-3-2.5-5.5-5.5-5.5H13.3c-3,0-5.5,2.5-5.5,5.5v52.5c0,3,2.5,5.5,5.5,5.5h20.9
	C37.2,70,39.7,67.5,39.7,64.5z"/>
<circle class="st1" cx="23.7" cy="64.4" r="2.9"/>
<path class="st1" d="M29,9.7h-8.4c-0.3,0-0.5-0.2-0.5-0.5V9.1c0-0.3,0.2-0.5,0.5-0.5H29c0.3,0,0.5,0.2,0.5,0.5v0.1
	C29.5,9.5,29.2,9.7,29,9.7z"/>
<path class="st1" d="M18.3,9.7L18.3,9.7c-0.3,0-0.5-0.2-0.5-0.5V9.1c0-0.3,0.2-0.5,0.5-0.5h0.1c0.3,0,0.5,0.2,0.5,0.5v0.1
	C18.8,9.5,18.5,9.7,18.3,9.7z"/>
</svg>
