<?xml version="1.0" encoding="utf-8"?>
<!-- Generator: Adobe Illustrator 21.1.0, SVG Export Plug-In . SVG Version: 6.00 Build 0)  -->
<svg version="1.1" id="Calque_1" xmlns="http://www.w3.org/2000/svg" xmlns:xlink="http://www.w3.org/1999/xlink" x="0px" y="0px"
	 viewBox="0 0 35.2 29.3" style="enable-background:new 0 0 35.2 29.3;" xml:space="preserve">
<style type="text/css">
	.st0{fill:#FFFFFF;}
</style>
<path class="st0" d="M7.2,11.6H0C0,1.4,8.9,0,17.6,0s17.6,1.4,17.6,11.6h-7.2C27.4,5,23.7,5.4,17.8,5.3C11.9,5.2,7.8,4.9,7.2,11.6z
	 M3.6,14.8c1.8,0,3.2,0.1,3.6-1.6c0-0.2,0.1-0.5,0.1-0.8H7.2H0C0,15,1.6,14.8,3.6,14.8z M28,12.4L28,12.4c-0.1,0.3,0,0.6,0,0.8
	c0.3,1.6,1.8,1.5,3.6,1.5c2,0,3.6,0.1,3.6-2.3C35.2,12.4,28,12.4,28,12.4z M24.5,11.5c1.7,1.8,7.3,9.4,7.5,10.3V28c0,0.6-0.5,1-1,1
	H3.6c-0.6,0-1-0.5-1-1l0-6.1c0.2-0.9,5.8-8.5,7.5-10.3v-0.9v-1c0-0.5,0.5-0.5,1.2-0.5h1.1c0.7,0,1.2,0,1.2,0.5v0.9v0.7H21v-0.7V9.6
	c0-0.5,0.5-0.5,1.2-0.5h1.1c0.7,0,1.2,0,1.2,0.5v1V11.5z M14.1,21.6c0-0.6-0.4-1-1-1c-0.6,0-1,0.4-1,1c0,0.5,0.4,1,1,1
	C13.7,22.6,14.1,22.2,14.1,21.6z M14.1,18.2c0-0.6-0.4-1-1-1c-0.6,0-1,0.4-1,1c0,0.5,0.4,1,1,1C13.7,19.2,14.1,18.8,14.1,18.2z
	 M14.1,14.8c0-0.6-0.4-1-1-1c-0.6,0-1,0.4-1,1c0,0.6,0.4,1,1,1C13.7,15.8,14.1,15.4,14.1,14.8z M18.2,21.6c0-0.6-0.4-1-1-1
	c-0.6,0-1,0.4-1,1c0,0.5,0.4,1,1,1C17.8,22.6,18.2,22.2,18.2,21.6z M18.2,18.2c0-0.6-0.4-1-1-1c-0.6,0-1,0.4-1,1c0,0.5,0.4,1,1,1
	C17.8,19.2,18.2,18.8,18.2,18.2z M18.2,14.8c0-0.6-0.4-1-1-1c-0.6,0-1,0.4-1,1c0,0.6,0.4,1,1,1C17.8,15.8,18.2,15.4,18.2,14.8z
	 M22.3,21.6c0-0.6-0.4-1-1-1c-0.6,0-1,0.4-1,1c0,0.5,0.4,1,1,1C21.9,22.6,22.3,22.2,22.3,21.6z M22.3,18.2c0-0.6-0.4-1-1-1
	c-0.6,0-1,0.4-1,1c0,0.5,0.4,1,1,1C21.9,19.2,22.3,18.8,22.3,18.2z M22.3,14.8c0-0.6-0.4-1-1-1c-0.6,0-1,0.4-1,1c0,0.6,0.4,1,1,1
	C21.9,15.8,22.3,15.4,22.3,14.8z"/>
</svg>
