<?xml version="1.0" encoding="utf-8"?>
<!-- Generator: Adobe Illustrator 21.1.0, SVG Export Plug-In . SVG Version: 6.00 Build 0)  -->
<svg version="1.1" id="Calque_1" xmlns="http://www.w3.org/2000/svg" xmlns:xlink="http://www.w3.org/1999/xlink" x="0px" y="0px"
	 viewBox="0 0 94.8 94.5" style="enable-background:new 0 0 94.8 94.5;" xml:space="preserve">
<style type="text/css">
	.st0{fill:#FFFFFF;}
</style>
<path class="st0" d="M91.8,73.8l-0.5-1.4c-1.1-3.2-4.5-6.4-7.7-7.3l-11.8-3.2c-3.2-0.9-7.8,0.3-10.1,2.7l-4.3,4.3
	c-15.5-4.2-27.7-16.4-31.9-31.9l4.3-4.3c2.3-2.3,3.5-6.9,2.7-10.1l-3.2-11.8c-0.9-3.2-4.2-6.7-7.3-7.8l-1.4-0.4
	c-3.1-1.1-7.7,0-10,2.4l-6.4,6.4c-1.1,1.1-1.8,4.4-1.8,4.4C2,35.9,10,55.5,24.4,69.9C38.7,84.2,58.2,92.2,78.5,92
	c0.1,0,3.5-0.7,4.6-1.9l6.4-6.4C91.8,81.4,92.9,76.9,91.8,73.8z"/>
</svg>
