<?xml version="1.0" encoding="utf-8"?>
<!-- Generator: Adobe Illustrator 21.1.0, SVG Export Plug-In . SVG Version: 6.00 Build 0)  -->
<svg version="1.1" id="Calque_1" xmlns="http://www.w3.org/2000/svg" xmlns:xlink="http://www.w3.org/1999/xlink" x="0px" y="0px"
	 viewBox="0 0 72.5 86" style="enable-background:new 0 0 72.5 86;" xml:space="preserve">
<style type="text/css">
	.st0{display:none;}
	.st1{display:inline;fill:#808080;}
	.st2{display:inline;}
	.st3{fill:#808080;}
	.st4{display:none;fill:#808080;}
</style>
<g>
	<g class="st0">
		<path class="st1" d="M70.7,18.2H1.9c-1.7,0-3.1-1.4-3.1-3.1l0,0c0-1.7,1.4-3.1,3.1-3.1h68.8c1.7,0,3.1,1.4,3.1,3.1l0,0
			C73.8,16.9,72.3,18.2,70.7,18.2z"/>
		<path class="st1" d="M70.7,46.3H58.2c-1.7,0-3.1-1.4-3.1-3.1l0,0c0-1.7,1.4-3.1,3.1-3.1h12.5c1.7,0,3.1,1.4,3.1,3.1l0,0
			C73.8,45,72.3,46.3,70.7,46.3z"/>
		<path class="st1" d="M1.9,74.4h68.8c1.7,0,3.1-1.4,3.1-3.1l0,0c0-1.7-1.4-3.1-3.1-3.1H1.9c-1.7,0-3.1,1.4-3.1,3.1l0,0
			C-1.2,73.2,0.1,74.4,1.9,74.4z"/>
		<path class="st1" d="M1.9,46.3h40.6c1.7,0,3.1-1.4,3.1-3.1l0,0c0-1.7-1.4-3.1-3.1-3.1H1.9c-1.7,0-3.1,1.4-3.1,3.1l0,0
			C-1.2,45,0.1,46.3,1.9,46.3z"/>
	</g>
	<g class="st0">
		<path class="st1" d="M35.8,79.1c-0.7,0-1.4-0.3-1.9-0.8c-1.4-1.4-33.9-34-33.9-52.1C-0.1,14.3,7.6,6.3,19,6.3
			c6.2,0,11.4,2.3,15,6.1c1.2,1.3,3.2,1.3,4.3,0c3.6-3.8,8.8-6.1,15-6.1C65,6.3,73.2,14.8,73.2,27c0,7.5-6.1,18.4-18.1,32.6
			c-8.6,10.2-17.4,18.6-17.5,18.7C37.2,78.8,36.5,79.1,35.8,79.1z M19,11.6c-8.4,0-13.7,5.5-13.7,14.5c0,11.5,17.9,33,28.4,44.2
			c1.1,1.2,3.1,1.2,4.2,0.1C49,59.4,67.8,38,67.8,27.1c0-9.3-5.7-15.2-14.5-15.2c-8.5,0-14.4,5.5-14.5,13.5c0,1.5-1.1,2.8-2.6,2.9
			c-1.6,0.1-2.9-1.2-2.9-2.7C33.5,17.2,27.5,11.6,19,11.6z"/>
	</g>
	<g class="st0">
		<g class="st2">
			<path class="st3" d="M29.2,83.7c-0.5,0-1-0.1-1.4-0.4c-1.1-0.6-1.8-1.9-1.7-3.1l1.6-20c0.1-1.7,1.6-3,3.4-2.9
				c1.7,0.1,3,1.6,2.9,3.4l-0.4,4.7c-0.1,0.8,1,1.2,1.4,0.5l15.9-24.6c0.3-0.5,0-1.2-0.7-1.2H39.5C39,40,38.4,40,38,39.6
				c-1.2-0.6-1.8-1.9-1.6-3.2l1.8-14.5c0.1-0.8-1-1.2-1.4-0.5L21.8,43.5c-0.3,0.5,0,1.2,0.6,1.2h8.9c1.6,0,3.1,1.2,3.2,2.8
				c0.2,1.9-1.3,3.4-3.1,3.4H15.2c-0.8,0-1.6-0.3-2.2-0.8c-1.2-1.1-1.3-2.8-0.5-4L40.7,4.5c0.7-1,1.9-1.6,3.1-1.4
				c1.7,0.3,2.9,1.8,2.7,3.5L43,33.8h14.3c0.8,0,1.6,0.3,2.2,0.8c1.2,1.1,1.3,2.8,0.5,4L31.8,82.2C31.2,83.2,30.2,83.7,29.2,83.7z"
				/>
		</g>
	</g>
	<g class="st0">
		<path class="st1" d="M76.1,78.8L53.7,55c-1.3,1.6-2.8,3.1-4.4,4.5L71.7,83c1.3,1.3,3.4,1.2,4.5-0.2C77.2,81.6,77.1,79.8,76.1,78.8
			z"/>
		<path class="st1" d="M48.8,52.3c-5.2,6.3-13.3,10.1-22.1,9.6C13.1,61.1,2.2,49.8,1.9,36.2C1.5,20.7,14.4,8.1,30,9
			c12.8,0.7,23.4,10.8,24.8,23.5c0.4,3.9,0,7.7-1.1,11.1c-0.4,1.1-0.1,2.3,0.7,3.1l0,0c1.6,1.7,4.5,1.1,5.2-1.1
			c1.3-3.9,1.8-8.1,1.5-12.5C59.9,16.6,46.5,3.4,30,2.6C11.4,1.8-4,16.3-4.4,34.7C-4.8,52.5,9.5,67.6,27.2,68.2
			c11,0.4,20.9-4.6,27.1-12.6l-3.2-3.4C50.6,51.7,49.5,51.7,48.8,52.3z"/>
	</g>
	<g class="st0">
		<g class="st2">
			<g>
				<path class="st3" d="M42.8,74.4c-0.7,0-1.3,0.4-1.8,0.9c-1.1,1.4-2.9,2.3-4.8,2.3s-3.7-0.9-4.8-2.3c-0.4-0.5-1.1-0.9-1.8-0.9
					s-1.4,0-2.1,0c-1.8,0-2.9,1.9-2,3.4c2.2,3.6,6.1,6,10.7,6s8.5-2.4,10.7-6c0.9-1.5-0.2-3.5-2-3.4C44.2,74.4,43.5,74.4,42.8,74.4z
					"/>
			</g>
			<path class="st3" d="M61.2,53.8L61.2,53.8L61,53.7c-0.7-0.5-5.2-4.3-5.2-20.6c0-5.6-0.9-10.1-2.8-13.4c-1-1.8-3.6-2.2-5-0.6
				c0,0,0,0,0,0.1c-0.9,1-1,2.5-0.4,3.7c1.3,2.2,1.9,5.5,1.9,10.3c0,20.7,6.9,25.3,8.8,26.2c2.2,1.2,2.2,2.2,2.2,2.7
				c0,0.4-0.4,1.3-0.7,1.6c0,0-3.7,1.5-23.5,1.5c-20.2,0-23.5-1.5-23.5-1.5c-0.3-0.3-0.7-1.2-0.7-1.6c0-0.5,0-1.5,2.2-2.7
				c1.6-0.8,7.9-5.4,7.9-26.2c0-9.5,2.3-14.9,14.1-14.9c3.6,0,6.8-2.1,8.3-5.1c-2.4-0.7-5.2-1.1-8.3-1.1C22.3,12,16,18.8,16,33.2
				c0,16.8-4.3,20.4-4.6,20.7c-3.7,2-5.5,4.8-5.5,8.2c0,2.5,1.5,6.2,4.5,7.4c1.7,1.2,6.5,2,26,2s24.4-0.8,26-2
				c2.9-1.2,4.5-4.9,4.5-7.4C66.8,58.6,64.8,55.8,61.2,53.8z"/>
			<path class="st3" d="M36.2,5.8c1.7,0,3.1,1.4,3.1,3.1S37.9,12,36.2,12s-3.1-1.4-3.1-3.1S34.5,5.8,36.2,5.8 M36.2-0.6
				c-5.2,0-9.4,4.2-9.4,9.4s4.2,9.4,9.4,9.4s9.4-4.2,9.4-9.4S41.5-0.6,36.2-0.6L36.2-0.6z"/>
		</g>
	</g>
	<g class="st0">
		<g class="st2">
			<path class="st3" d="M58.2,79.2c-0.7,0-1.5-0.3-2.1-0.8L42.2,65.9c-0.6-0.5-1.3-0.8-2.1-0.8h-32c-5.2,0-9.4-4.2-9.4-9.4V18.2
				c0-5.2,4.2-9.4,9.4-9.4h56.2c5.2,0,9.4,4.2,9.4,9.4v37.5c0,5.2-4.2,9.4-9.4,9.4h-6.2c-1.7,0-3.1-1.4-3.1-3.1s1.4-3.1,3.1-3.1h6.2
				c1.7,0,3.1-1.4,3.1-3.1V18.2c0-1.7-1.4-3.1-3.1-3.1H8.1c-1.7,0-3.1,1.4-3.1,3.1v37.5c0,1.7,1.4,3.1,3.1,3.1h32
				c2.3,0,4.5,0.9,6.3,2.4l13.8,12.5c1.3,1.2,1.4,3.1,0.2,4.4C59.8,78.8,58.9,79.2,58.2,79.2z"/>
		</g>
	</g>
	<path class="st4" d="M62.8,29.2L62.8,29.2c-0.1-14.9-12-26.5-26.6-26.5S9.8,14.2,9.6,29.2l0,0l0,0l0,0l0,0
		c0.1,20.2,23.6,40.6,24.6,41.5c0.6,0.5,1.3,0.8,2,0.8s1.4-0.3,2-0.8C39.2,69.8,62.8,49.5,62.8,29.2L62.8,29.2
		C62.8,29.2,62.8,29.2,62.8,29.2C62.8,29.2,62.8,29.2,62.8,29.2z M38.5,61.8c-1.2,1.2-3.2,1.2-4.4,0C27.5,55.2,16,41.8,16,29.2
		C16,18.2,25.1,9,36.2,9s20.3,9.3,20.3,20.3C56.6,41.8,45,55.2,38.5,61.8z M62.8,71.3c0,8.2-13.4,12.5-26.6,12.5S9.6,79.5,9.6,71.3
		c0-3.8,2.9-6.7,7.3-8.8c1.2-0.6,2.7-0.2,3.6,0.8c0,0,0,0,0,0.1c1.3,1.6,0.8,3.9-1.1,4.8c-2.4,1.2-3.6,2.4-3.6,3.2
		c0,1.9,6.9,6.2,20.3,6.2s20.3-4.4,20.3-6.2c0-0.8-1.2-2-3.6-3.2c-1.8-0.9-2.4-3.2-1.1-4.8c0,0,0,0,0-0.1c0.9-1,2.4-1.4,3.6-0.8
		C59.9,64.7,62.8,67.6,62.8,71.3z M36.2,18.2c-6,0-10.9,4.9-10.9,10.9s4.9,11,10.9,11s10.9-4.9,10.9-10.9S42.2,18.2,36.2,18.2z
		 M36.2,33.8c-2.6,0-4.7-2.1-4.7-4.7s2.1-4.7,4.7-4.7s4.7,2.1,4.7,4.7S38.8,33.8,36.2,33.8z"/>
	<g class="st0">
		<path class="st1" d="M36.2,59.7c-9,0-16.4-7.4-16.4-16.4s7.4-16.4,16.4-16.4s16.4,7.4,16.4,16.4c0,1.3-0.2,2.6-0.5,3.9
			c-0.4,1.7-2.1,2.7-3.8,2.3s-2.7-2.1-2.3-3.8c0.2-0.8,0.3-1.6,0.3-2.4c0-5.6-4.6-10.2-10.2-10.2S26,37.7,26,43.2
			s4.6,10.2,10.2,10.2c1.2,0,2.4-0.2,3.6-0.6c1.6-0.6,3.4,0.2,4,1.8s-0.2,3.4-1.8,4C40.2,59.3,38.2,59.7,36.2,59.7z M48.2,74.4v-3
			l1.9,2.1c1.8,1.8,4.1,2.7,6.6,2.7s4.8-1,6.6-2.7l3.3-3.3c1.8-1.8,2.7-4.1,2.7-6.6s-1-4.7-2.8-6.5l-2.1-2h3c5.2,0,9.8-4.5,9.8-9.7
			v-4.7c0-5.2-4.6-9.7-9.8-9.7h-3l2.1-1.9c3.7-3.7,3.7-9.5,0-13.2l-3.3-3.3c-1.8-1.8-4.1-2.7-6.6-2.7s-4.7,1-6.5,2.8L48.2,15v-2.9
			c0-5.2-4.5-9.8-9.7-9.8h-4.7c-5.2,0-9.7,4.6-9.7,9.8v3L22.2,13c-1.8-1.8-4.1-2.7-6.6-2.7s-4.8,1-6.6,2.7l-3.3,3.3
			C2,20,2.1,25.8,5.7,29.3l2.1,1.9h-3c-5,0-9.6,4.5-9.6,9.7v4.7c0,5.2,4.6,9.7,9.8,9.7h3l-2.1,1.9c-3.7,3.7-3.7,9.5,0,13.2l3.3,3.3
			c1.8,1.8,4.1,2.7,6.6,2.7s4.7-1,6.5-2.8l1.9-2.1v3c0,5.2,4.5,9.8,9.7,9.8h4.7C43.8,84.2,48.2,79.7,48.2,74.4z M21.2,66.2L18,69.2
			c-0.6,0.6-1.4,0.9-2.2,0.9c-0.8,0-1.6-0.3-2.2-0.9l-3.4-3.4c-1.2-1.2-1.2-3.2,0-4.4l3.1-3.1c1.6-1.6,2.1-4.3,1.2-6.4
			c-0.9-2.1-2.9-3.7-5.2-3.7H5c-1.7,0-2.7-0.9-2.7-2.7v-4.7c0-1.7,1-2.7,2.8-2.7h4.4c2.3,0,4.3-1.6,5.2-3.8v-0.1
			c0.9-2.1,0.4-4.6-1.2-6.2l-3.2-3c-1.2-1.2-1.2-3.2,0-4.4l3.3-3.3c0.6-0.6,1.4-0.9,2.2-0.9c0.8,0,1.6,0.3,2.2,0.9l2.8,2.8
			c1.2,1.2,2.7,1.8,4.4,1.8c0.8,0,1.6-0.2,2.3-0.4l0,0h0.2c1.9-0.8,3.4-2.6,3.4-4.7V12c0-1.7,0.9-2.8,2.7-2.8h4.7
			c1.7,0,2.7,1,2.7,2.8v4.4c0,2.3,1.6,4.3,3.8,5.2c0.7,0.3,1.5,0.4,2.3,0.4c1.5,0,3-0.6,4-1.6l3.1-3.1c0.6-0.6,1.4-0.9,2.2-0.9
			c0.8,0,1.6,0.3,2.2,0.9l3.3,3.3c1.2,1.2,1.2,3.2,0,4.4l-3.1,3.1c-1.6,1.6-2.1,4.3-1.2,6.4c0.9,2.1,2.9,3.7,5.2,3.7h4.4
			c1.7,0,2.8,0.9,2.8,2.7v4.7c0,1.7-1,2.7-2.8,2.7h-4.4c-2.3,0-4.3,1.6-5.2,3.7v0.1v0.1c-0.9,2.1-0.4,4.5,1.2,6.2l3.1,3.1
			c1.2,1.2,1.2,3.2,0,4.4l-3.2,3.3c-0.6,0.6-1.4,0.9-2.2,0.9c-0.8,0-1.6-0.3-2.2-0.9l-3.1-3.1c-1.1-1.1-2.5-1.6-4-1.6
			c-0.7,0-1.4,0.1-2.1,0.4H45c-2.1,0.9-3.7,2.9-3.7,5.2v4.4c0,1.7-0.9,2.8-2.7,2.8h-4.7c-1.7,0-2.7-1-2.7-2.8v-4.4
			c0-2.3-1.6-4.3-3.8-5.2c-0.7-0.3-1.5-0.4-2.3-0.4C23.8,64.4,22.2,65.1,21.2,66.2z"/>
	</g>
	<g class="st0">
		<path class="st1" d="M64.3,68.2c-0.8,0-1.6-0.3-2.2-0.9L50.6,55.8H23.8c-5.2,0-9.4-4.2-9.4-9.4V18.2c0-5.2,4.2-9.4,9.4-9.4h43.8
			c5.2,0,9.4,4.2,9.4,9.4v28.1c0,5.2-4.2,9.4-9.4,9.4h-0.8c-1.7,0-3.1-1.4-3.1-3.1s1.4-3.1,3.1-3.1h0.8c1.7,0,3.1-1.4,3.1-3.1V18.2
			c0-1.7-1.4-3.1-3.1-3.1H23.8c-1.7,0-3.1,1.4-3.1,3.1v28.1c0,1.7,1.4,3.1,3.1,3.1h28.1c0.8,0,1.6,0.3,2.2,0.9l12.5,12.5
			c1.2,1.2,1.2,3.2,0,4.4C65.9,67.9,65.2,68.2,64.3,68.2z M11.2,65.2c0-1.7-1.4-3.1-3.1-3.1H5c-1.7,0-3.1-1.4-3.1-3.1V31.5
			c0-1.7,1.4-3.1,3.1-3.1h3.1c1.7,0,3.1-1.4,3.1-3.1s-1.4-3.1-3.1-3.1H5c-5.2,0-9.4,4.2-9.4,9.4v27.3c0,5.2,4.2,9.4,9.4,9.4h3.1
			C9.9,68.2,11.2,66.8,11.2,65.2z M13.5,79.8L25,68.2h23.7c1.7,0,3.1-1.4,3.1-3.1s-1.4-3.1-3.1-3.1h-25c-0.8,0-1.6,0.3-2.2,0.9
			L9,75.4c-1.2,1.2-1.2,3.2,0,4.4c0.6,0.6,1.4,0.9,2.2,0.9S12.9,80.4,13.5,79.8z"/>
	</g>
	<g class="st0">
		<path class="st1" d="M39.3,83.8c-1,0-2-0.5-2.9-1.7c-0.2-0.3-0.2-0.6-0.2-0.9V57.9c0-0.4,0.2-0.8,0.5-1.1c2.7-2.4,5.8-0.6,5.8,2
			v3.9c0,0.8,1.1,1.1,1.5,0.3c6.8-15,16.8-36.8,22.5-49.2c0.3-0.7-0.4-1.3-1-1L15.1,35.5c-0.8,0.3-0.5,1.5,0.3,1.5h20.8
			c3.5,0,6.2,2.8,6.2,6.4v3.9c0,0.4-0.2,0.8-0.5,1.1c-2.7,2.4-5.8,0.6-5.8-2v-1.6c0-0.9-0.7-1.6-1.6-1.6H-3.6
			c-0.3,0-0.6-0.1-0.8-0.2c-2.4-1.8-1.7-4.8,0.4-5.8L72.4,2.9c1.9-0.9,4.3,0.3,4.5,3c0,0.2,0,0.4-0.1,0.6
			C65.2,31.8,42.8,80.8,42.2,81.9C41.8,83.2,40.5,83.8,39.3,83.8z"/>
	</g>
	<g class="st0">
		<path class="st1" d="M70.4,50c-5.9,5.9-18.3,15.9-35,15.9c-17.1,0-29.7-10.4-35.7-16.6c-1.2-1.2-1.2-3.2,0.1-4.4
			C1,43.7,3,43.7,4.2,45c5.3,5.5,16.4,14.7,31.2,14.7c14.5,0,25.4-8.8,30.6-14c1.2-1.2,3.2-1.2,4.4,0C71.8,46.8,71.8,48.8,70.4,50z
			 M68.8,39c-1.2,0.6-2.6,0.4-3.6-0.6c-3.2-3.1-7.5-6.5-12.7-9.1c-0.5-0.3-1.1,0.3-0.9,0.8c0.7,1.9,1.1,3.9,1.1,6
			c0,10.7-9.8,19.1-20.9,16.8c-6.5-1.4-11.7-6.5-13.1-13c-0.7-3.5-0.4-6.8,0.7-9.8c0.2-0.6-0.4-1.1-0.9-0.8
			c-5.3,2.6-9.6,6.1-12.8,9.2c-0.6,0.6-1.4,0.9-2.2,0.9c-1.2,0-2.4-0.7-3-2.1c-0.5-1.2-0.1-2.5,0.8-3.3C8.4,27.2,20.1,19,35.5,19
			c15.3,0,27,8.1,34.1,14.9C71.1,35.3,70.8,38,68.8,39z M46.2,38.2c1-2.7-1.5-5.1-4.1-4.1c-0.8,0.3-1.4,0.9-1.7,1.7
			c-1,2.7,1.5,5.1,4.1,4.1C45.2,39.5,45.8,39,46.2,38.2z"/>
	</g>
	<g class="st0">
		<path class="st1" d="M61.2,58.8c-3.5,0-6.6,1.4-8.9,3.7L23.5,46c0.2-0.9,0.3-1.8,0.3-2.7c0-1.3-0.2-2.6-0.6-3.7l29-15.8
			c2.3,2.4,5.5,4,9.1,4c6.9,0,12.5-5.6,12.5-12.5S68.2,2.6,61.2,2.6S48.8,8.2,48.8,15.1c0,1.1,0.1,2.1,0.4,3.1l-29.3,16
			c-2.2-2.1-5.3-3.5-8.6-3.5c-6.9,0-12.5,5.6-12.5,12.5s5.6,12.5,12.5,12.5c3.7,0,7.1-1.7,9.4-4.3l28.6,16.6
			c-0.3,1.1-0.5,2.2-0.5,3.3c0,6.9,5.6,12.5,12.5,12.5s12.5-5.6,12.5-12.5S68.2,58.8,61.2,58.8z M61.2,8.9c3.4,0,6.2,2.8,6.2,6.2
			s-2.8,6.2-6.2,6.2c-2.4,0-4.4-1.3-5.5-3.3l0,0c-0.5-0.9-0.8-1.9-0.8-3C55.1,11.6,57.8,8.9,61.2,8.9z M11.2,49.5
			c-3.4,0-6.2-2.8-6.2-6.2S7.8,37,11.2,37s6.2,2.8,6.2,6.2S14.6,49.5,11.2,49.5z M61.2,77.7c-3.4,0-6.2-2.8-6.2-6.2s2.8-6.2,6.2-6.2
			s6.2,2.8,6.2,6.2S64.7,77.7,61.2,77.7z"/>
	</g>
	<g>
		<path class="st3" d="M23.2,19.1c-1.3-1.2-1.3-3.4,0-4.6L34.1,3.6c1.2-1.2,3.2-1.2,4.4,0l10.9,10.9c1.3,1.3,1.3,3.4,0,4.6
			c-0.6,0.5-1.3,0.8-2.1,0.8S45.6,19.6,45,19l-5.7-5.8v39.3c0,1.7-1.3,3.1-3,3.1s-3-1.4-3-3.1V13.2L27.5,19
			c-0.6,0.6-1.4,0.9-2.2,0.9C24.5,20,23.7,19.6,23.2,19.1z M61.2,23.2h-10c-1.6,0-3.1,1.1-3.2,2.7c-0.2,1.9,1.2,3.3,3,3.3h8.6
			c0.9,0,1.6,0.6,1.6,1.5v45.3c0,0.9-0.7,1.2-1.6,1.2H12.9c-0.9,0-1.6-0.3-1.6-1.2V30.8c0-0.9,0.7-1.5,1.6-1.5h8.4
			c1.6,0,3.1-1.1,3.2-2.7c0.2-1.9-1.3-3.3-3.1-3.3H11.2c-3.5,0-6,2.5-6,5.9v48.4c0,3.5,2.5,6.6,6,6.6h50c3.5,0,6-3.2,6-6.6V29.2
			C67.2,25.8,64.8,23.2,61.2,23.2z"/>
	</g>
	<g class="st0">
		<path class="st1" d="M36.2,33.8c-1.7,0-3-1.4-3-3.1v-25c0-1.7,1.3-3.1,3-3.1s3,1.4,3,3.1v25C39.2,32.5,38,33.8,36.2,33.8z
			 M72.2,48c0-14.8-8.7-27.9-22.3-33.4c-1.6-0.6-3.4,0.1-4.1,1.7c-0.6,1.6,0.1,3.4,1.7,4.1C58.6,24.9,65.9,35.7,65.9,48
			c0,16.4-13.3,29.7-29.7,29.7S6.5,64.3,6.5,48c0-12.1,7.2-22.9,18.5-27.5c1.6-0.7,2.4-2.5,1.7-4.1s-2.5-2.4-4.1-1.7
			C9,20.2,0.4,33.2,0.4,48c0,19.8,16.1,35.9,35.9,35.9S72.2,67.8,72.2,48z"/>
	</g>
	<g class="st0">
		<path class="st1" d="M64.2,19.5l9.9-9.9c1.2-1.2,1.3-3,0.3-4.3c-1.2-1.4-3.3-1.5-4.6-0.2l-10,10l-21.4-1.9c-1.8-0.2-3.7,0.5-5,1.8
			L-0.9,49.2c-2.4,2.4-2.4,6.4,0,8.8l22.1,22.2c2.4,2.4,6.4,2.4,8.8,0L64.2,46c1.3-1.3,2-3.1,1.8-5L64.2,19.5z M45.5,33.8
			c1.2,1.2,1.2,3.2,0,4.4s-3.2,1.2-4.4,0s-1.2-3.2,0-4.4S44.2,32.7,45.5,33.8z M24.5,74.8L4.5,54.8c-0.6-0.6-0.6-1.6,0-2.2L37.2,20
			c0.3-0.3,0.8-0.5,1.2-0.5l12.2,1.1c1.3,0.1,1.9,1.7,1,2.7l-4.4,4.3c-3.6-1.7-8.2-1-11,2.2c-3.2,3.5-3.1,9.1,0.1,12.6
			c3.6,3.9,9.8,4,13.5,0.3c2.9-2.9,3.5-7.2,1.8-10.7l4.4-4.4c0.9-0.9,2.5-0.4,2.7,1l1.1,12.2c0,0.5-0.1,0.9-0.5,1.2L26.7,74.8
			C26,75.3,25,75.3,24.5,74.8z M25.5,62.6c-1.2,1.2-3.2,1.2-4.4,0l-4.4-4.4c-1.2-1.2-1.2-3.2,0-4.4s3.2-1.2,4.4,0l4.4,4.4
			C26.8,59.3,26.8,61.3,25.5,62.6z M38.8,53.8c1.2,1.2,1.2,3.2,0,4.4c-1.2,1.2-3.2,1.2-4.4,0L21.2,44.8c-1.2-1.2-1.2-3.2,0-4.4
			s3.2-1.2,4.4,0L38.8,53.8z"/>
	</g>
	<g class="st0">
		<path class="st1" d="M36.2,77.3C17.4,77.3,2,61.9,2,43.1S17.4,8.9,36.2,8.9s34.3,15.4,34.3,34.2c0,6.8-2,13.3-5.8,19
			c-0.9,1.4-2.8,1.8-4.2,0.8c-1.4-0.9-1.8-2.8-0.8-4.2c3.1-4.6,4.7-10,4.7-15.6c0-15.5-12.7-28.1-28.2-28.1S8,27.7,8,43.2
			s12.6,28.2,28.2,28.2c5.5,0,10.9-1.6,15.5-4.6c1.4-0.9,3.3-0.5,4.2,0.9c0.9,1.4,0.5,3.3-0.9,4.2C49.5,75.4,43,77.3,36.2,77.3z
			 M51.9,41.5L38.8,28.2c-0.7-0.7-1.7-1-2.6-0.9c-0.9-0.1-1.9,0.2-2.6,0.9L20.3,41.5c-1.1,1.1-1.3,2.8-0.5,4
			c1.1,1.7,3.4,1.8,4.8,0.5l7.2-7.1c0.5-0.5,1.4-0.1,1.4,0.6v17.8c0,1.4,0.7,2.7,2,3.1c2.1,0.7,4-0.9,4-3V39.7c0-0.7,0.9-1,1.4-0.6
			l6.9,6.9c1.4,1.4,3.7,1.2,4.8-0.5C53.2,44.2,52.9,42.5,51.9,41.5z"/>
	</g>
	<g class="st0">
		<g class="st2">
			<path class="st3" d="M64.3,27.7H8.1c-3.5,0-6.2,2.8-6.2,6.2v43.8c0,3.5,2.8,6.2,6.2,6.2h56.2c3.5,0,6.2-2.8,6.2-6.2V33.8
				C70.7,30.5,67.8,27.7,64.3,27.7z M62.8,77.7H9.6C8.8,77.7,8,77,8,76.1V35.5c0-0.9,0.7-1.6,1.6-1.6h3.1c0.9,0,1.6,0.7,1.6,1.6
				v32.7c0,1.6,1.2,3.1,2.8,3.2c1.9,0.2,3.4-1.3,3.4-3.1V35.5c0-0.9,0.7-1.6,1.6-1.6h40.6c0.9,0,1.6,0.7,1.6,1.6v40.6
				C64.3,76.9,63.7,77.7,62.8,77.7z"/>
			<path class="st3" d="M20.7,18.2c0-4.6,3.3-8.4,7.6-9.2c0.7-0.1,1.2,0.6,0.8,1.2c-1.4,2.3-2.2,5.1-2.2,8v3.1
				c0,1.7,1.4,3.1,3.1,3.1l0,0c1.7,0,3.1-1.4,3.1-3.1v-3.1c0-2.1,0.7-4,1.9-5.6c0.6-0.8,1.9-0.8,2.5,0c1.2,1.6,1.9,3.5,1.9,5.6v3.1
				c0,1.7,1.4,3.1,3.1,3.1l0,0c1.7,0,3.1-1.4,3.1-3.1v-3.1c0-2.9-0.8-5.7-2.2-8c0.5-0.8,0.3-0.4,0.8-1.2c4.3,0.8,7.6,4.6,7.6,9.2
				v3.1c0,1.7,1.4,3.1,3.1,3.1l0,0c1.7,0,3.1-1.4,3.1-3.1v-2.7c0-8.2-6.1-15.3-14.2-16C41,2.3,38.3,2.8,36,3.8l0,0
				c-2.3-1-4.9-1.5-7.7-1.2c-8.1,0.7-14.2,7.8-14.2,16v2.7c0,1.7,1.4,3.1,3.1,3.1l0,0c1.7,0,3.1-1.4,3.1-3.1v-3.1H20.7z"/>
		</g>
	</g>
	<g class="st0">
		<path class="st1" d="M58.2,37v40.6c0,3.5-2.8,6.2-6.2,6.2H20c-3.1,0-5.7-2.5-5.7-5.7V37c0-2.3,2.5-4,5-2.6
			c0.8,0.5,1.3,1.4,1.3,2.3v39.4c0,0.9,0.7,1.6,1.6,1.6h28.1c0.9,0,1.6-0.7,1.6-1.6V36.8c0-0.9,0.5-1.8,1.3-2.3
			C55.7,33,58.2,34.7,58.2,37z M42.5,65.2H30c-1.7,0-3.1,1.4-3.1,3.1s1.4,3.1,3.1,3.1h12.5c1.7,0,3.1-1.4,3.1-3.1
			S44.2,65.2,42.5,65.2z M42.5,52.7H30c-1.7,0-3.1,1.4-3.1,3.1s1.4,3.1,3.1,3.1h12.5c1.7,0,3.1-1.4,3.1-3.1S44.2,52.7,42.5,52.7z
			 M42.5,40.2H30c-1.7,0-3.1,1.4-3.1,3.1s1.4,3.1,3.1,3.1h12.5c1.7,0,3.1-1.4,3.1-3.1S44.2,40.2,42.5,40.2z M14.4,27.7
			c0-1.7,1.4-3.1,3.1-3.1c0-5.8,4-10.7,9.4-12.1V9c0-5.2,4.2-9.4,9.4-9.4s9.4,4.2,9.4,9.4v3.5c5.4,1.4,9.4,6.3,9.4,12.1
			c1.7,0,3.1,1.4,3.1,3.1s-1.4,3.1-3.1,3.1H17.5C15.8,30.8,14.4,29.3,14.4,27.7z M23.8,24.5h25c0-3.4-2.8-6.2-6.2-6.3l0,0
			c-1.7,0-3.1-1.4-3.1-3.1V8.9c0-1.8-1.6-3.3-3.4-3.1C34.5,6,33.2,7.4,33.2,9v6.1c0,1.7-1.4,3.1-3.1,3.1l0,0
			C26.5,18.2,23.8,21,23.8,24.5z"/>
	</g>
	<g class="st0">
		<path class="st1" d="M36.2,77.3C17.4,77.3,2,61.9,2,43.1S17.4,8.9,36.2,8.9s34.3,15.4,34.3,34.2c0,6.8-2,13.3-5.8,19
			c-0.9,1.4-2.8,1.8-4.2,0.8c-1.4-0.9-1.8-2.8-0.8-4.2c3.1-4.6,4.7-10,4.7-15.6c0-15.5-12.7-28.1-28.2-28.1S8,27.7,8,43.2
			s12.6,28.2,28.2,28.2c5.5,0,10.9-1.6,15.5-4.6c1.4-0.9,3.3-0.5,4.2,0.9c0.9,1.4,0.5,3.3-0.9,4.2C49.5,75.4,43,77.3,36.2,77.3z
			 M52.3,41c-1.1-1.7-3.4-1.8-4.8-0.5l-6.9,6.9c-0.5,0.5-1.4,0.1-1.4-0.6V29.2c0-2-1.8-3.6-4-3c-1.3,0.4-2,1.7-2,3.1V47
			c0,0.7-0.9,1-1.4,0.6l-7.1-7.1c-1.4-1.4-3.7-1.2-4.8,0.5c-0.9,1.3-0.6,3,0.5,4l13.1,13.2c0.7,0.7,1.7,1,2.6,0.9
			c0.9,0.1,1.9-0.2,2.6-0.9L51.9,45C52.9,44,53.2,42.2,52.3,41z"/>
	</g>
	<g class="st0">
		<path class="st1" d="M26.8,71.3c0,3.5-2.8,6.2-6.2,6.2s-6.2-2.8-6.2-6.2s2.8-6.2,6.2-6.2S26.8,67.9,26.8,71.3z M58.2,65.2
			c-3.5,0-6.2,2.8-6.2,6.2s2.8,6.2,6.2,6.2s6.2-2.8,6.2-6.2S61.6,65.2,58.2,65.2z M23.8,21.2c-1.6,0-3.3,1-3.3,3c0,2.1,1.3,3,3.1,3
			h44c1,0,1.8,1.1,1.5,2.1L65,45.8c-0.1,0.6-0.6,1.1-1.2,1.2l-39.7,8c-0.8,0.2-1.6-0.3-1.8-1.1L11.1,14.4c-0.4-1.3-1.6-2.1-3-2.1
			h-9.2c-1.6,0-3.1,1.1-3.2,2.7c-0.2,1.9,1.3,3.3,3.1,3.3h5.8c0.7,0,1.3,0.5,1.5,1.1l10.7,37.8c0.9,3.2,4.1,5.1,7.3,4.4L66.2,53
			c2.4-0.5,4.3-2.3,4.8-4.6l5.2-21.2c0.7-3-1.5-5.9-4.6-5.9C71.7,21.3,23.8,21.3,23.8,21.2z"/>
	</g>
	<g class="st0">
		<path class="st1" d="M42.5,30.8c0,3.5-2.8,6.2-6.2,6.2S30,34.2,30,30.8s2.8-6.2,6.2-6.2S42.5,27.2,42.5,30.8z M38.3,89.3
			c0.6-0.5,2.3-2,3.5-2.8l0.4-0.3c2.2-1.5,6.4-4.2,6.4-11.7l0,0c0-1.7-1.4-3.1-3.1-3.1l0,0c-1.7,0-3.1,1.4-3.1,3.1l0,0
			c0,4.1-1.7,5.2-3.6,6.5l-0.4,0.2c-0.7,0.5-1.5,1.1-2.2,1.6c-0.7-0.6-1.5-1.1-2.2-1.6l-0.4-0.2c-2.2-1.4-3.7-2.3-3.7-6.5l0,0
			c0-1.7-1.4-3.1-3.1-3.1l0,0c-1.7,0-3.1,1.4-3.1,3.1l0,0c0,7.6,4,10.1,6.6,11.8l0.3,0.2c1.6,1,3.4,2.7,3.4,2.8l2.1,2L38.3,89.3z
			 M68.2,65.2c0,3-0.9,5.9-2.5,8.5c-0.5,0.8-1.4,1.3-2.4,1.4c-0.1,0-0.1,0-0.2,0c-0.9,0-1.8-0.4-2.4-1.1c-3.6-4.2-7.1-5.7-12.8-5.7
			c-0.2,0-0.4,0-0.6-0.1v0.1h-8v3.1c0,1.7-1.3,3.1-3,3.1s-3-1.4-3-3.1v-3.1H27c-5.7,0-9.2,1.5-12.8,5.7c-0.6,0.7-1.5,1.1-2.4,1.1
			c-0.1,0-0.1,0-0.2,0c-1-0.1-1.9-0.6-2.4-1.4c-1.6-2.5-2.5-5.5-2.5-8.5c0-7.3,5-13.4,11.8-15.1c-0.5-3-0.8-6.3-0.8-9.9
			c0-15.5,9.7-37.5,18.8-37.5c5.9,0,10.7,8.3,13,13.2c3.6,7.7,5.8,16.8,5.8,24.3c0,3.5-0.3,6.6-0.7,9.5C62.2,50.3,68.2,57,68.2,65.2
			z M22,62.4c-0.6-1.3-1.2-2.9-1.8-4.7c-0.3-0.9-1.3-1.4-2.2-0.9c-3.1,1.5-5.2,4.7-5.2,8.4c0,0.4,0,0.9,0.1,1.3
			C15.5,64.3,18.5,63.1,22,62.4z M43.8,62.2c1.6-3,4.9-10.9,4.9-22c0-6.6-1.9-14.8-5.2-21.7c-3.4-7.3-6.6-9.7-7.3-9.7
			c-2.7,0-12.5,16.5-12.5,31.2c0,4.1,0.5,7.8,1.2,11c0.3,0.5,0.4,1,0.4,1.5c0,0.1,0,0.2,0,0.3c1.1,4.4,2.5,7.3,3.4,9.3h4.5v-9.6
			c0-1.7,1.3-3.1,3-3.1s3,1.4,3,3.1v9.7H43.8z M62.1,65.2c0-4.6-3.3-8.4-7.7-9.2c-0.8-0.1-1.6,0.3-1.8,1.1c-0.6,2-1.3,3.7-1.9,5.1
			c4.4,0.4,8,1.7,11.3,4.3C62.1,65.9,62.1,65.6,62.1,65.2z"/>
	</g>
	<g class="st0">
		<path class="st1" d="M36.2,2.6C13.9,2.6-4.4,20.9-4.4,43.2s18.2,40.6,40.6,40.6s40.6-18.2,40.6-40.6S58.7,2.6,36.2,2.6z
			 M65.1,24.5c-0.6,0-1.3,0-1.9,0c-0.7,0-1.3,0-1.8,0c-1.6,0-2.6-0.3-3.1-0.5c0.1-3.2,0.6-4.7,1.5-5.9C61.7,20,63.4,22.1,65.1,24.5z
			 M27.2,10c0,0,1.2,2.1,1.5,2.3c0.2,0.1,0.4,0.4,0.4,0.6c0,0.1,0,0.1,0,0.2c0,0.8,0,3,2.1,4.5c1.1,0.8,2.4,0.9,3.6,0.9
			c0.3,0,0.9,0.1,1.3,0.1c-0.1,1.9-0.6,2.7-1.3,3.7C34,23.5,33,25,33,27.5c-0.9,0.1-2.5,0.1-3.1,0.1c-3.8,0-9.4,3.3-9.4,9.4
			c0,6.5,4.7,9.4,9.4,9.4c1.4,0,3.7,0.8,4.9,1.7c0.6,0.5,1.4,1,1.4,4.6c0,1.7,0,2.6-5.2,7c-3.5,3-6.7,7.7-9.1,11.7
			c-2.1-3.4-4.5-9.9-4.5-12.5c0-3.1,0.7-4.3,1.6-5.7c0.5-0.8,1-1.6,1.4-2.7c1.4-4.2,0-8.7-3.9-12.6c-0.7-0.7-1.5-1.4-2.2-2
			c-2.2-1.8-3.1-2.6-3.1-5.1c0,0-0.6-5.8-0.8-8.6c-0.1-1.3,0.8-2.3,0.8-2.3S20.2,12,27.2,10z M2.1,43.2c0-5.1,1.2-9.9,3.2-14.3v1.8
			c0,5.5,2.9,8,5.3,10c0.6,0.5,1.2,1,1.7,1.6c2.2,2.2,3,4.3,2.3,6.2c-0.1,0.4-0.4,0.8-0.8,1.4c-1.1,1.7-2.5,4.1-2.5,9
			c0,1.7,1.1,6.2,2.9,10.6C6.8,63.2,2.1,53.8,2.1,43.2z M26,76.1c2.2-3.7,5.8-8.9,9.1-11.7c5.4-4.6,7.3-7.1,7.3-11.8
			c0-4.8-1.1-7.5-3.9-9.6c-2.2-1.7-5.9-2.9-8.6-2.9c-3.1,0-3.1-2.2-3.1-3.1c0-2.2,2.4-3.1,3.1-3.1c3.5,0,6-0.1,7.8-2
			c1.1-1.1,1.6-2.5,1.6-4.3c0-0.5,0.1-0.7,0.7-1.6c1-1.4,2.4-3.5,2.4-7.7c0-5.3-5.2-5.7-7.1-5.9v-0.1C35.1,11.1,34.8,10,34,9
			c0.7,0,1.4-0.1,2.2-0.1c6.8,0,13.1,2,18.4,5.4c-2.4,3.1-2.8,6.8-2.8,10.2c0,3.8,3.7,6.2,9.4,6.2c0.5,0,1.2,0,1.9,0
			c1.5,0,3.1,0,4.2,0h0.1c0.2,0,0.5,0,0.7-0.1c0.4,1,0.8,2.1,1.1,3.2c-6.7,0.1-20.6,0.8-20.6,12.5c0,7.4,4,9.8,6.4,11.2
			c0.4,0.3,0.8,0.5,1.2,0.7c0.6,0.4,1.5,2.3,1.8,10.2c0,0.5,0,0.9,0,1.3c-5.9,4.9-13.6,7.9-21.9,7.9C31.7,77.7,26,76.1,26,76.1z
			 M64.1,63.4c-0.4-4.4-1.4-8.3-4.1-10.2c-0.5-0.4-1.1-0.7-1.6-1c-2.1-1.2-3.3-2-3.3-5.8c0-3.2,1.9-6.2,15.5-6.2
			c0.1,1,0.1,2.1,0.1,3.1C70.7,50.8,68.2,57.8,64.1,63.4z"/>
	</g>
	<g class="st0">
		<path class="st1" d="M36.2,2.6C13.9,2.6-4.4,20.9-4.4,43.2s18.2,40.6,40.6,40.6s40.6-18.2,40.6-40.6S58.7,2.6,36.2,2.6z
			 M70.7,43.2c0,1.1-0.1,2.1-0.1,3.1c-1.9,0-2.7-1-4.2-3.5S62.9,37,58.2,37c-1.8,0-3.2,0.5-4.3,1.6c-1.8,1.8-1.7,4.3-1.7,6.5
			c0,1.3,0,2.5-0.2,3.7c-1.6,7-4.5,15.4-6.4,18.6l0,0c-0.3-0.9-0.5-1.8-0.7-2.7c-1.3-5-2.9-10.6-7.7-12c-2-0.5-4-1.7-4-6.3
			c0-5.1,1.7-6.2,9.4-6.2h1.6c4.3,0,7.8-3.7,7.8-8s-3.5-8-7.8-8h-1.6c-1.6,0-2.6-0.2-3.1-0.4c0-1,0-1.8,0.1-2.3
			c0.2-0.1,0.5-0.2,1.1-0.4l0.2-0.1c0.3-0.1,6.5-3.3,7.8-9.9C61.4,16,70.7,28.7,70.7,43.2z M13,18c0.5,0.3,0.9,0.5,1.2,0.6
			c0,0,0.1,0,0.1,0.1c-0.1,2-0.6,2.8-1.3,3.8c-0.8,1.1-1.8,2.6-1.8,5.1c-0.9,0.1-2.5,0.1-3.1,0.1c-0.9,0-1.8,0.2-2.7,0.5
			C7.2,24.2,9.9,20.9,13,18z M7.1,61.6c-3.2-5-5.1-11-5.3-17.3c1.7,1.4,4,2.1,6.2,2.1c1.4,0,3.7,0.8,4.9,1.7c0.6,0.5,1.4,1,1.4,4.6
			c0,1.7,0,2.6-5.2,7C8.5,60.2,7.9,60.8,7.1,61.6z M36.2,77.7c-9.9,0-18.9-4.2-25.2-11c0.8-0.9,1.5-1.6,2.2-2.2
			c5.4-4.6,7.3-7.1,7.3-11.8c0-4.8-1.1-7.5-3.9-9.6c-2.2-1.7-5.9-2.9-8.6-2.9c-3.1,0-3.1-2.2-3.1-3.1C4.9,34.9,7.3,34,8,34
			c3.5,0,6-0.1,7.8-2c1.1-1.1,1.6-2.5,1.6-4.3c0-0.5,0.1-0.7,0.7-1.6c1-1.4,2.4-3.5,2.4-7.7c0-2.3-1-3.6-2.1-4.4
			c5.2-3.1,11.2-4.9,17.7-4.9c2.1,0,4.2,0.2,6.2,0.6c-0.3,3.6-3.8,5.6-4.4,6c-4.6,1.8-4.9,4-4.9,9.3c0,3.8,3.7,6.5,9.4,6.5H44
			c0.9,0,1.6,0.6,1.6,1.5S45,34.2,44,34.2h-1.6c-5.5,0-15.6-0.2-15.6,12.3c0,3.7,1.1,10.2,8.5,12.3c1.4,0.4,2.5,4.7,3.3,7.5
			c0.3,0.9,0.5,1.9,0.8,2.8c1.4,4.8,4.8,5.4,6.1,5.4c3.1,0,5.4-2.9,8.2-10.3c1.8-4.8,3.5-10.5,4.2-14c0.4-1.9,0.4-3.7,0.4-5.1
			c0-0.5,0-1.3,0-1.8c0.8,0.1,1.3,0.7,2.5,2.8c1.4,2.4,3.6,6,8.4,6.5C65.2,66.9,51.9,77.7,36.2,77.7z"/>
	</g>
	<g class="st0">
		<path class="st1" d="M76.8,27.7c0-2.4-1.1-3.8-2-4.6c-2-1.8-5.3-2.3-10.9-1.6c-1.7,0.2-2.9,1.8-2.7,3.5c0.2,1.7,1.8,2.9,3.5,2.7
			c3.8-0.5,5.6-0.5,5.8,0c-0.4,1.1-3.3,3.6-7.7,6.5c-3.8-11-14.3-19-26.6-19c-14.1,0-25.8,10.4-27.8,24c-0.2,0.1-0.3,0.1-0.5,0.2
			C-2.6,45.5-6.9,50.8-5.2,55.2c1.1,3.1,4.6,4.6,10.6,4.6c1.9,0,4-0.1,6.3-0.4c0.5-0.1,1-0.1,1.5-0.2c5.1,7.3,13.5,12.2,23.1,12.2
			c15.5,0,28.1-12.6,28.1-28.1c0-0.9,0-1.8-0.1-2.6C71.8,36,76.8,31.2,76.8,27.7z M15.9,35.8c0.5-1.2,1.6-2,2.9-2h23.6
			c1.6,0,3.1-1.2,3.2-2.8c0.2-1.9-1.3-3.4-3.1-3.4H23c-0.7,0-1.1-0.9-0.5-1.4c3.8-3,8.5-4.9,13.7-4.9c10.1,0,18.5,6.8,21.1,16.1
			c-1.6,0.9-3.3,1.8-5.1,2.7H20.8c-1.6,0-3.1,1.2-3.2,2.8c-0.2,1.9,1.3,3.4,3.1,3.4h16.8c-8.2,3-15.3,4.9-21.1,6
			c-1.3-2.8-2-5.8-2-9.1C14.4,40.7,15,38.2,15.9,35.8z M0.8,53c0.4-1,2.3-3.2,7.5-6.6c0.3,2.4,0.8,4.7,1.7,6.8
			C5.1,53.8,1.9,53.7,0.8,53z M36.2,65.2c-2.9,0-5.7-0.6-8.2-1.6c-0.8-0.3-0.6-1.5,0.3-1.5h14.1c1.6,0,3.1-1.2,3.2-2.8
			c0.2-1.9-1.3-3.4-3.1-3.4H28.8c3.8-1.1,7.7-2.3,11.6-3.8c4.5-1.6,9-3.5,13.3-5.6H57c0.5,0,0.9,0.4,0.8,0.9
			C55.8,57.4,47,65.2,36.2,65.2z"/>
	</g>
	<g class="st0">
		<path class="st1" d="M33.2,62.1V48c0-0.9-0.7-1.6-1.6-1.6H17.5c-1.8,0-3.3-1.6-3.1-3.4c0.2-1.6,1.6-2.8,3.2-2.8h13.9
			c0.9,0,1.6-0.7,1.6-1.6V24.5c0-1.8,1.6-3.3,3.4-3.1c1.6,0.2,2.8,1.6,2.8,3.2v13.9c0,0.9,0.7,1.6,1.6,1.6h14.1
			c1.8,0,3.3,1.6,3.1,3.4c-0.2,1.6-1.6,2.8-3.2,2.8H41c-0.9,0-1.6,0.7-1.6,1.6v13.9c0,1.6-1.2,3.1-2.8,3.2
			C34.7,65.2,33.2,63.8,33.2,62.1z M36.2,2.6C13.9,2.6-4.4,20.9-4.4,43.2s18.2,40.6,40.6,40.6c10.2,0,20-3.8,27.6-10.8
			c1.3-1.2,1.3-3.1,0.2-4.4c-1.2-1.3-3.1-1.3-4.4-0.2c-6.4,5.9-14.7,9.2-23.3,9.2c-19.1,0-34.5-15.4-34.5-34.4S17.2,8.9,36.2,8.9
			s34.4,15.4,34.4,34.4c0,5.7-1.4,11.4-4.2,16.4c-0.8,1.5-0.3,3.4,1.2,4.2c1.5,0.8,3.4,0.3,4.2-1.2c3.2-5.9,4.9-12.6,4.9-19.4
			C76.8,20.9,58.7,2.6,36.2,2.6z"/>
	</g>
	<g class="st0">
		<path class="st1" d="M67.3,40.2h-51c-1.4,0-2.1-1.7-1.1-2.7l7.6-7.6c1.2-1.2,1.2-3.2,0-4.4s-3.2-1.2-4.4,0L2.8,41
			c-1.2,1.2-1.2,3.2,0,4.4l15.5,15.5c0.6,0.6,1.4,0.9,2.2,0.9s1.6-0.3,2.2-0.9c1.2-1.2,1.2-3.2,0-4.4L15.2,49c-1-1-0.3-2.7,1.1-2.7
			h51.2c1.8,0,3.3-1.6,3.1-3.4C70.4,41.3,68.9,40.2,67.3,40.2z"/>
	</g>
	<g class="st0">
		<g class="st2">
			<path class="st3" d="M36.2,5.8C15.5,5.8-1.2,22.5-1.2,43.2s16.8,37.5,37.5,37.5s37.5-16.8,37.5-37.5S56.9,5.8,36.2,5.8z
				 M40.8,12.4c1,0.1,1.6,1.2,1.2,2.1c-1,2.2-3.2,3.8-5.7,3.8s-4.8-1.6-5.7-3.8c-0.4-0.9,0.2-2,1.2-2.1c1.5-0.2,3-0.3,4.5-0.3
				S39.2,12.1,40.8,12.4z M24,72.1c-3.1-1.3-5.9-3.1-8.4-5.3c-0.6-0.5-0.7-1.4-0.2-2c1.5-2.2,4.4-3.3,7.2-2.4c1.5,0.5,2.7,1.6,3.5,3
				c1,2,0.9,4.3-0.1,6C25.7,72.1,24.8,72.3,24,72.1z M36.2,74.4c-0.8,0-1.7,0-2.5-0.1c-1-0.1-1.7-1.1-1.3-2.1
				c0.5-1.3,0.7-2.7,0.7-4.1c0-6.9-5.6-12.5-12.5-12.5c-3.4,0-6.5,1.4-8.8,3.7C11.2,60,10,59.9,9.4,59c-2.8-4.7-4.3-10.1-4.3-15.9
				c0-12.2,7-22.8,17.3-28c0.8-0.4,1.9,0,2.2,0.9c1.7,4.8,6.4,8.3,11.8,8.3s10.1-3.5,11.8-8.3c0.3-0.9,1.3-1.3,2.2-0.9
				c10.2,5.1,17.3,15.7,17.3,28C67.4,60.4,53.4,74.4,36.2,74.4z"/>
			<path class="st3" d="M48.8,33.8c-6.9,0-12.5,5.6-12.5,12.5s5.6,12.5,12.5,12.5s12.5-5.6,12.5-12.5S55.7,33.8,48.8,33.8z
				 M48.8,52.7c-3.4,0-6.2-2.8-6.2-6.2s2.8-6.2,6.2-6.2s6.2,2.8,6.2,6.2S52.2,52.7,48.8,52.7z"/>
			<path class="st3" d="M22.2,28.8c-1.5-0.9-3.4-0.4-4.3,1.1c-0.9,1.5-0.4,3.4,1.1,4.3c1,0.6,1.6,1.6,1.6,2.7c0,1.7-1.4,3.1-3.1,3.1
				c-0.6,0-1.1-0.1-1.6-0.4c-1.5-0.9-3.4-0.3-4.3,1.2s-0.3,3.4,1.2,4.3c1.4,0.8,3,1.2,4.7,1.2c5.2,0,9.4-4.2,9.4-9.4
				C26.8,33.7,25,30.5,22.2,28.8z"/>
		</g>
	</g>
	<g class="st0">
		<path class="st1" d="M54.8,46.2H41h-9.4H17.5c-1.8,0-3.3-1.4-3.1-3.3c0.2-1.6,1.6-2.7,3.2-2.7h13.9h9.4h14.1
			c1.8,0,3.3,1.4,3.1,3.3C57.9,45.2,56.4,46.2,54.8,46.2z M36.2,2.6C13.9,2.6-4.4,20.9-4.4,43.2s18.2,40.6,40.6,40.6
			c10.2,0,20-3.8,27.6-10.8c1.3-1.2,1.3-3.1,0.2-4.4c-1.2-1.3-3.1-1.3-4.4-0.2c-6.4,5.9-14.7,9.2-23.3,9.2
			c-19.1,0-34.5-15.4-34.5-34.4S17.2,8.9,36.2,8.9s34.4,15.4,34.4,34.4c0,5.7-1.4,11.4-4.2,16.4c-0.8,1.5-0.3,3.4,1.2,4.2
			c1.5,0.8,3.4,0.3,4.2-1.2c3.2-5.9,4.9-12.6,4.9-19.4C76.8,20.9,58.7,2.6,36.2,2.6z"/>
	</g>
	<g class="st0">
		<path class="st1" d="M57.2,28.5c1.2,1.2,1.2,3.2,0,4.4l-25,25c-0.6,0.6-1.4,0.9-2.2,0.9s-1.6-0.3-2.2-0.9L15.2,45.5
			c-1.2-1.2-1.2-3.2,0-4.4s3.2-1.2,4.4,0L30,51.3l22.8-22.8C54.1,27.3,55.9,27.3,57.2,28.5z M36.2,2.6C13.9,2.6-4.4,20.9-4.4,43.2
			s18.2,40.6,40.6,40.6c10.2,0,20-3.8,27.6-10.8c1.3-1.2,1.3-3.1,0.2-4.4c-1.2-1.3-3.1-1.3-4.4-0.2c-6.4,5.9-14.7,9.2-23.3,9.2
			c-19.1,0-34.5-15.4-34.5-34.4S17.2,8.9,36.2,8.9s34.4,15.4,34.4,34.4c0,5.7-1.4,11.4-4.2,16.4c-0.8,1.5-0.3,3.4,1.2,4.2
			c1.5,0.8,3.4,0.3,4.2-1.2c3.2-5.9,4.9-12.6,4.9-19.4C76.8,20.9,58.7,2.6,36.2,2.6z"/>
	</g>
	<g class="st0">
		<path class="st1" d="M36.2,65.2v19 M39.2,83.8V65.2c0-1.7-1.3-3.1-3-3.1s-3,1.4-3,3.1v18.8c0,1.7,1.3,3.1,3,3.1
			S39.2,85.7,39.2,83.8z M61.2,52.8c0-0.8-0.6-1.7-1.1-2.3L48.2,36V22.5L60.3,7.7c0.8-0.9,1-2.4,0.5-3.5s-1.5-2-2.7-2H14.4
			c-1.2,0-2.3,0.9-2.8,2S11,6.7,11.7,7.6l11.6,14.9v13.4L11.6,50.7c-0.8,0.9-0.8,2.5-0.3,3.6s1.7,2,2.9,2h43.8l0,0
			C59.8,56.2,61.2,54.7,61.2,52.8z M29.5,38.8c0.4-0.6,0.8-1.1,0.8-1.8V21.4c0-0.7-0.4-1.2-0.8-1.8L20.8,9.2h30.7L43,19.6
			c-0.4,0.6-0.8,1.1-0.8,1.8V37c0,0.7,0.4,1.3,0.8,1.8l8.7,10.4H20.8L29.5,38.8z"/>
	</g>
	<g class="st0">
		<path class="st1" d="M47.2,58.8l-11-11l-11,11c-1.3,1.3-3.4,1.2-4.6-0.2c-1-1.3-0.9-3.1,0.3-4.3l11-11l-11-11
			c-1.3-1.3-1.2-3.4,0.2-4.6c1.3-1,3.1-0.9,4.3,0.3l11,11l11-11c1.3-1.3,3.4-1.2,4.6,0.2c1,1.3,0.9,3.1-0.3,4.3l-11,11l11,11
			c1.2,1.2,1.3,3,0.3,4.3C50.8,59.9,48.5,60.1,47.2,58.8z M36.2,2.6C13.9,2.6-4.4,20.9-4.4,43.2s18.2,40.6,40.6,40.6
			c10.2,0,20-3.8,27.6-10.8c1.3-1.2,1.3-3.1,0.2-4.4c-1.2-1.3-3.1-1.3-4.4-0.2c-6.4,5.9-14.7,9.2-23.3,9.2
			c-19.1,0-34.5-15.4-34.5-34.4S17.2,8.9,36.2,8.9s34.4,15.4,34.4,34.4c0,5.7-1.4,11.4-4.2,16.4c-0.8,1.5-0.3,3.4,1.2,4.2
			c1.5,0.8,3.4,0.3,4.2-1.2c3.2-5.9,4.9-12.6,4.9-19.4C76.8,20.9,58.7,2.6,36.2,2.6z"/>
	</g>
	<g class="st0">
		<path class="st1" d="M64.3,83.8H8.1c-1.7,0-3.1-1.4-3.1-3.1v-75c0-1.7,1.4-3.1,3.1-3.1h34.9c2.5,0,4.9,1,6.6,2.7l16.9,16.9
			c0.9,0.9,1.2,2.2,0.7,3.4s-1.6,1.9-2.9,1.9H45.7c-1.7,0-3.1-1.4-3.1-3.1V8.9H11.2v68.8h50V33.8c0-1.7,1.4-3.1,3.1-3.1
			s3.1,1.4,3.1,3.1v46.9C67.4,82.4,66.2,83.8,64.3,83.8z M48.8,21.4h8.1l-8.1-8.1V21.4z"/>
	</g>
	<g class="st0">
		<path class="st1" d="M67.4,12.2H51.8c0-5-4.2-10-9.4-10H30c-5.2,0-9.4,5-9.4,10H5c-1.7,0-3.1,1.3-3.1,3s1.4,3,3.1,3h62.5
			c1.7,0,3.1-1.3,3.1-3S69.2,12.2,67.4,12.2z M29.8,12.2c-1.9,0-2.2-2.8-0.3-3c0.1,0,0.3,0,0.4,0h12.5c0.1,0,0.3-0.1,0.4,0
			c1.9,0.2,1.6,3-0.3,3H29.8z M67.4,24.6l-3.1,56.4c-0.1,1.7-1.4,3.2-3.1,3.2h-50c-1.7,0-3-1.5-3.1-3.1L5,24.9
			c-0.1-1.7,1.2-3.2,2.9-3.3c1.7-0.1,3.2,1,3.3,2.7l3,53h44l3-53.1c0.1-1.7,1.6-2.9,3.3-2.9C66.2,21.4,67.6,23,67.4,24.6z
			 M36.2,71.3c-1.7,0-3-1.4-3-3.1V30.8c0-1.7,1.3-3.1,3-3.1s3,1.4,3,3.1v37.5C39.2,69.9,38,71.3,36.2,71.3z M23.8,71.3
			c-1.7,0-3.5-1.4-3.5-3.1V33.8c0-1.7,1.8-3.1,3.5-3.1s3.5,1.4,3.5,3.1v34.4C27.2,69.9,25.5,71.3,23.8,71.3z M48.8,71.3
			c-1.7,0-3.5-1.4-3.5-3.1V33.8c0-1.7,1.8-3.1,3.5-3.1c1.7,0,3.5,1.4,3.5,3.1v34.4C52.2,69.9,50.4,71.3,48.8,71.3z"/>
	</g>
	<g class="st0">
		<path class="st1" d="M20.2,44.7L20.2,44.7c-0.3,0.3-0.5,0.6-0.6,0.9L13,64.1c-0.2,0.6,0.4,1.2,1,1l18.5-6.7
			c0.4-0.2,0.7-0.4,0.9-0.6l0,0l37.4-37.4l-13-13L20.2,44.7z M57.6,16.1l4.2,4.2L29.7,52.5l-4.6,0.4l0.4-4.6L57.6,16.1z M67.4,77.2
			H5c-1.7,0-3.1-1.3-3.1-3s1.4-3,3.1-3h62.5c1.7,0,3.1,1.3,3.1,3S69.2,77.2,67.4,77.2z"/>
	</g>
	<g class="st0">
		<path class="st1" d="M61.2,41.7c-1.7,0-3,1.4-3,3.1v26.5h-44v-56h39.5L29.3,39.5l0,0c-0.3,0.3-0.5,0.6-0.6,0.9L22,58.8
			c-0.2,0.6,0.4,1.2,1,1l18.5-6.7c0.4-0.2,0.7-0.4,0.9-0.6l0,0l37.4-37.4l-13-13l-7.1,7.3c-0.6-0.2-1.1-0.2-1.6-0.2H11.2
			c-1.7,0-3,1-3,2.8v62.5c0,1.7,1.3,2.8,3,2.8h50c1.7,0,3-1,3-2.8V44.8C64.2,43,62.9,41.7,61.2,41.7z M70.8,15.1L38.8,47.2l-4.5,0.4
			l0.4-4.6L66.8,11L70.8,15.1z"/>
	</g>
	<g class="st0">
		<path class="st1" d="M61.2,24.6l-3.1,56.4c-0.1,1.7-1.5,3.1-3.1,3.1H17.5c-1.7,0-3-1.5-3.1-3.1l-3.1-56.3
			c-0.1-1.7,1.2-3.2,2.9-3.3c1.7-0.1,3.2,1,3.3,2.7l3,53.1H52l3-53.1c0.1-1.7,1.6-3,3.3-2.9C60.1,21.4,61.3,23,61.2,24.6z
			 M33.2,68.2V30.8c0-1.7-1.3-3.1-3-3.1s-3,1.4-3,3.1v37.5c0,1.7,1.3,3.1,3,3.1S33.2,69.9,33.2,68.2z M45.2,68.2V30.8
			c0-1.7-1.3-3.1-3-3.1s-3,1.4-3,3.1v37.5c0,1.7,1.3,3.1,3,3.1S45.2,69.9,45.2,68.2z M67.4,15.2c0,1.7-1.4,3-3.1,3H8.1
			c-1.7,0-3.1-1.3-3.1-3s1.4-3,3.1-3h12.5c0-5,4.2-10,9.4-10h12.5c5.2,0,9.4,5,9.4,10h12.5C66.2,12.2,67.4,13.5,67.4,15.2z
			 M46.2,10.8c0-0.8-0.7-1.5-1.5-1.5h-16c-0.8,0-1.5,0.7-1.5,1.5l0,0c0,0.8,0.7,1.5,1.5,1.5h16C45.5,12.2,46.2,11.5,46.2,10.8
			L46.2,10.8z"/>
	</g>
	<g class="st0">
		<g class="st2">
			<path class="st3" d="M70.7,15.1H33.2c-1.7,0-3.1,1.4-3.1,3.1v6.2H1.9c-1.7,0-3.1,1.4-3.1,3.1v9.4c0,1.7,1.4,3.1,3.1,3.1h9.4v25H5
				V49.7c0-1.6-1.2-3.1-2.8-3.2c-1.9-0.2-3.4,1.3-3.4,3.1v18.7c0,1.7,1.4,3.1,3.1,3.1h68.6c1.6,0,3.1-1.2,3.2-2.8
				c0.2-1.9-1.3-3.4-3.1-3.4H57.1c-0.7,0-1-0.8-0.5-1.3c2.9-2.8,4.7-6.8,4.7-11.2s-1.8-8.3-4.7-11.2c-0.5-0.5-0.1-1.3,0.5-1.3H66
				c0.9,0,1.6,0.7,1.6,1.6v13.9c0,1.6,1.2,3.1,2.8,3.2c1.9,0.2,3.4-1.3,3.4-3.1V37V18.2C73.8,16.5,72.3,15.1,70.7,15.1z M5,33.8
				v-3.1h28.1c1.7,0,3.1-1.4,3.1-3.1v-6.2h31.2V34H5V33.8z M45.7,62.1c-5.2,0-9.4-4.2-9.4-9.4s4.2-9.4,9.4-9.4s9.4,4.2,9.4,9.4
				S50.8,62.1,45.7,62.1z M30,52.7c0,4.4,1.8,8.3,4.7,11.2c0.5,0.5,0.1,1.3-0.5,1.3H19c-0.9,0-1.6-0.7-1.6-1.6V41.7
				c0-0.9,0.7-1.6,1.6-1.6h15.1c0.7,0,1,0.8,0.5,1.3C31.8,44.2,30,48.2,30,52.7z"/>
			<path class="st3" d="M58.2,24.2H45.7c-1.7,0-3.1,1.8-3.1,3.5s1.4,3.5,3.1,3.5h12.5c1.7,0,3.1-1.8,3.1-3.5S59.8,24.2,58.2,24.2z"
				/>
			<path class="st3" d="M8.1,21.2h12.5c1.7,0,3.1-1.3,3.1-3s-1.4-3-3.1-3H8.1c-1.7,0-3.1,1.3-3.1,3S6.4,21.2,8.1,21.2z"/>
		</g>
	</g>
	<g class="st0">
		<path class="st1" d="M55.4,10.6l-2.2,2.2l-2.2,2.2l-42,42c-0.6,0.6-0.6,0.6-0.7,1L1.6,76.6c-0.2,0.6,0.4,1.2,1,1l18.5-6.8
			c0.4-0.2,0.6,0,1.1-0.6l0.1,0.1l35.4-35.4c1.2-1.2,1.2-3.2,0-4.4s-3.2-1.2-4.4,0l-2.2,2.2l-1.7,1.7L18.5,65.2l-5.1,0.7l0.7-5.1
			L44.9,30l1.7-1.7l8.8-8.8l6.6,6.6c1.2,1.2,3.2,1.2,4.4,0l2.2-2.2c3.7-3.7,3.7-9.6,0-13.3C65.1,7.1,59.1,7.1,55.4,10.6z M64.2,19.5
			l-4.4-4.4c1.2-1.2,3.2-1.2,4.4,0C65.4,16.4,65.4,18.2,64.2,19.5z"/>
	</g>
	<g class="st0">
		<path class="st1" d="M36.2,83.8c-22.4,0-40.6-18.2-40.6-40.6S13.9,2.6,36.2,2.6s40.6,18.2,40.6,40.6S58.7,83.8,36.2,83.8z
			 M36.2,8.9c-19,0-34.4,15.4-34.4,34.4s15.4,34.4,34.4,34.4s34.4-15.4,34.4-34.4S55.2,8.9,36.2,8.9z M54.1,61.1
			c1.2-1.2,1.2-3.2-0.1-4.4L39.2,42V24.5c0-1.7-1.3-3.1-3-3.1s-3,1.4-3,3.1v18.8c0,0.8,0.3,1.6,0.9,2.2l15.6,15.6
			c0.6,0.6,1.4,0.9,2.2,0.9S53.4,61.7,54.1,61.1z"/>
	</g>
	<g class="st0">
		<path class="st1" d="M70.7,77.2H1.9c-1.7,0-3.6-1-3.6-2.8v-50c0-1.7,1.9-3.2,3.6-3.2h12.5c1.7,0,2.9,1.5,2.9,3.2v37.5
			c0,1.7-1.3,3.1-3,3.1s-3-1.4-3-3.1V27.2h-6v44h62v-44H51.8c-1.7,0-3.6-1-3.6-2.8v-9.2h-12v9.2c0,1.7-1.4,2.8-3.1,2.8H27
			c-1.7,0-3.1-1.3-3.1-3s1.4-3,3.1-3h3.3V12c0-1.7,1.1-2.8,2.9-2.8h18.8c1.7,0,3.4,1,3.4,2.8v9.2h15.4c1.7,0,2.6,1.5,2.6,3.2v50
			C73.2,76.2,72.3,77.2,70.7,77.2z M14.4,15.2c0-1.7-1.4-3-3.1-3H5c-1.7,0-3.1,1.3-3.1,3s1.4,3,3.1,3h6.2C13,18.2,14.4,17,14.4,15.2
			z M73.8,15.2c0-1.7-1.4-3-3.1-3h-6.2c-1.7,0-3.1,1.3-3.1,3s1.4,3,3.1,3h6.2C72.3,18.2,73.8,17,73.8,15.2z M61.2,49.5
			c0-10.3-8.4-18.8-18.8-18.8s-18.8,8.4-18.8,18.8s8.5,18.8,18.8,18.8S61.2,59.8,61.2,49.5z M55.1,49.5c0,6.9-5.6,12.5-12.5,12.5
			s-12.5-5.6-12.5-12.5s5.6-12.5,12.5-12.5S55.1,42.7,55.1,49.5z"/>
	</g>
	<g class="st0">
		<path class="st1" d="M67.4,12.2h-6.2v6h6v6h-62v-6h6v-6H5c-3.4,0-6.8,2.6-6.8,6v56.2c0,3.4,3.3,6.8,6.8,6.8h62.5
			c3.4,0,5.8-3.3,5.8-6.8V18.2C73.2,14.9,70.9,12.2,67.4,12.2z M67.2,74.2h-62v-43h62V74.2z M20.2,21.2h-6v-19h6v10h13v-10h6v10h13
			v-10h6v19h-6v-3h-13v3h-6v-3h-13V21.2z M23.2,49.2h-12v-12h12V49.2z M42.2,49.2h-12v-12h12V49.2z M61.2,49.2h-13v-12h13V49.2z
			 M23.2,68.2h-12v-12h12V68.2z M42.2,68.2h-12v-12h12V68.2z M61.2,68.2h-13v-12h13V68.2z"/>
	</g>
	<g class="st0">
		<path class="st1" d="M74.3,27c3.6-3,5.6-7.4,5.6-11.9c0-8.6-7-15.6-15.6-15.6c-4.6,0-8.9,2.1-11.9,5.6c-1.1,1.3-0.9,3.3,0.4,4.4
			s3.3,0.9,4.4-0.4c1.8-2.2,4.4-3.4,7.2-3.4c5.2,0,9.4,4.2,9.4,9.4c0,2.7-1.2,5.3-3.4,7.2c-1.3,1.1-1.5,3.1-0.4,4.4
			c0.6,0.7,1.5,1.1,2.4,1.1C73.1,27.8,73.8,27.5,74.3,27z M2.1,26.5c1.1-1.3,1-3.3-0.3-4.4c-2.1-1.8-3.3-4.3-3.3-7
			c0-5.2,4.2-9.4,9.4-9.4c2.7,0,5.3,1.2,7.2,3.4c1.1,1.3,3.1,1.5,4.4,0.4C20.8,8.4,21,6.4,20,5.1c-3-3.6-7.4-5.6-11.9-5.6
			c-8.6,0-15.6,7-15.6,15.6c0,4.5,2,8.8,5.4,11.7c0.6,0.5,1.3,0.8,2,0.8C0.6,27.7,1.6,27.2,2.1,26.5z M67.4,43.2
			C67.4,26,53.4,12,36.2,12S5,26,5,43.2s14,31.2,31.2,31.2S67.4,60.4,67.4,43.2z M61.2,43.2c0,13.8-11.2,25-25,25s-25-11.2-25-25
			s11.2-25,25-25S61.2,29.5,61.2,43.2z M39.2,43.2V30.8c0-1.7-1.3-3.1-3-3.1s-3,1.4-3,3.1v9.5H30c-1.7,0-3.1,1.3-3.1,3s1.4,3,3.1,3
			h6.2C38,46.2,39.2,45,39.2,43.2z M7.6,85.7l6.2-9.4c1-1.4,0.6-3.4-0.9-4.3c-1.4-1-3.4-0.6-4.3,0.9l-6.2,9.4
			c-1,1.4-0.6,3.4,0.9,4.3C3.8,87,4.4,87.1,5,87.1C6,87.1,7,86.6,7.6,85.7z M69.2,86.4c1.4-1,1.8-2.9,0.9-4.3L64,72.7
			c-1-1.4-2.9-1.8-4.3-0.9c-1.4,1-1.8,2.9-0.9,4.3l6.2,9.4c0.6,0.9,1.6,1.4,2.6,1.4C68.1,87.1,68.8,86.8,69.2,86.4z"/>
	</g>
	<g class="st0">
		<path class="st1" d="M67.4,77.7H5c-3.4,0-6.2-2.8-6.2-6.2V27.7c0-3.4,2.8-6.2,6.2-6.2h9.4c1.7,0,3.1-1.4,3.1-3.1
			c0-5.2,4.2-9.4,9.4-9.4h18.8c5.2,0,9.4,4.2,9.4,9.4c0,1.7,1.4,3.1,3.1,3.1h9.4c3.4,0,6.2,2.8,6.2,6.2v43.8
			C73.8,74.8,70.9,77.7,67.4,77.7z M5,27.7v43.8h62.5V27.6h-9.4c-5.2,0-9.4-4.2-9.4-9.4c0-1.7-1.4-3.1-3.1-3.1H26.8
			c-1.7,0-3.1,1.4-3.1,3.1c0,5.2-4.2,9.4-9.4,9.4C14.4,27.6,5,27.6,5,27.7z M43.2,63.8c1.6-0.6,2.4-2.5,1.7-4.1s-2.5-2.4-4.1-1.7
			c-1.5,0.6-3.1,0.9-4.6,0.9c-6.9,0-12.5-5.6-12.5-12.5s5.6-12.5,12.5-12.5s12.5,5.6,12.5,12.5c0,1.6-0.3,3.1-0.9,4.6
			c-0.6,1.6,0.1,3.4,1.7,4.1c1.6,0.6,3.4-0.1,4.1-1.7c0.9-2.3,1.4-4.6,1.4-7c0-10.3-8.4-18.8-18.8-18.8s-18.8,8.4-18.8,18.8
			S26,65.2,36.2,65.2C38.7,65.2,41,64.7,43.2,63.8z"/>
	</g>
	<g class="st0">
		<path class="st1" d="M57.2,8.9l-2,2c-11.7-6.9-26.4-6.9-38.1,0l-1.9-2c-1.8-1.8-4.8-1.8-6.6,0L2,15.5c-1.8,1.8-1.8,4.8,0,6.6
			L3.9,24C-3,35.8-3,50.4,3.9,62.1l-2,2.1c-1.8,1.8-1.8,4.8,0,6.6l6.6,6.6c1.8,1.8,4.8,1.8,6.6,0l1.9-1.9c11.7,6.9,26.4,6.9,38.1,0
			l1.9,1.9c1.8,1.8,4.8,1.8,6.6,0l6.6-6.6c1.8-1.8,1.8-4.8,0-6.6l-1.7-2c6.9-11.7,6.9-26.4,0-38.1l1.9-1.9c1.8-1.8,1.8-4.8,0-6.6
			l-6.6-6.6C62.1,7.1,59.1,7.1,57.2,8.9z M49.2,17.1L44.2,22c-0.4,0.4-1,0.5-1.6,0.4c-4.2-1.3-8.7-1.3-12.9,0
			c-0.6,0.2-1.2,0-1.6-0.4l-4.9-4.9c-0.8-0.8-0.5-2.1,0.5-2.5c7.9-3.4,16.9-3.4,24.8,0C49.7,15,50,16.4,49.2,17.1z M47.2,54.2
			c-6,6.1-16,6.1-22,0s-6.1-16,0-22s16-6.1,22.1,0S53.3,48.2,47.2,54.2z M12,14.5l11.2,11.2c-0.8,0.6-1.6,1.3-2.4,2s-1.4,1.5-2,2.4
			L7.5,19L12,14.5z M10.1,30.3l4.9,4.9c0.4,0.4,0.5,1,0.4,1.6c-1.3,4.2-1.3,8.7,0,12.9c0.2,0.6,0,1.2-0.4,1.6l-4.9,4.9
			C9.4,57,8,56.8,7.6,55.8c-3.4-7.9-3.4-16.9,0-24.8C8,29.8,9.4,29.5,10.1,30.3z M7.5,67.6l11.2-11.2c0.6,0.8,1.3,1.6,2,2.4
			c0.8,0.8,1.5,1.4,2.4,2L12,71.9L7.5,67.6z M23.3,69.3l4.9-4.9c0.4-0.4,1-0.5,1.6-0.4c4.2,1.3,8.7,1.3,12.9,0
			c0.6-0.2,1.2,0,1.6,0.4l4.9,4.9c0.8,0.8,0.5,2.1-0.5,2.5c-7.9,3.4-16.9,3.4-24.8,0C22.8,71.4,22.5,70.2,23.3,69.3z M60.6,71.9
			L49.3,60.8c0.8-0.6,1.6-1.3,2.4-2c0.8-0.8,1.4-1.5,2-2.4l11.2,11.2L60.6,71.9z M62.3,56.2l-4.8-4.9c-0.4-0.4-0.5-1-0.4-1.6
			c1.3-4.2,1.3-8.7,0-12.9c-0.2-0.6,0-1.2,0.4-1.6l4.9-4.9c0.8-0.8,2.1-0.5,2.5,0.5c3.4,7.9,3.4,16.9,0,24.8
			C64.4,56.7,63.2,57,62.3,56.2z M64.9,19L53.8,30.2c-0.6-0.8-1.3-1.6-2-2.4c-0.8-0.8-1.5-1.4-2.4-2l11.2-11.2L64.9,19z"/>
	</g>
	<g class="st0">
		<path class="st1" d="M45.7,46.2c0,1.7-1.4,3-3.1,3h-6.3c-1.7,0-3-1.1-3-2.9V33.8c0-1.7,1.3-3.1,3-3.1s3,1.4,3,3.1v9.4h3.2
			C44.2,43.2,45.7,44.5,45.7,46.2z M48.8,74.4c-1.7,0-3.5,1.4-3.5,3.1v6.2c0,1.7,1.8,3.1,3.5,3.1c1.7,0,3.5-1.4,3.5-3.1v-6.2
			C52.2,75.8,50.4,74.4,48.8,74.4z M65.9,37c-0.4,0-0.8,0.1-1.2,0.3c-0.5,0.2-0.8,0-0.9-0.5c-1.7-7-6.6-13-11.6-16.8V2.6
			c0-1.8-1.9-3.3-3.8-3.1c-1.6,0.1-3.2,1.6-3.2,3.2v11.9c0,1-0.8,1.8-1.8,1.5c-2.4-0.6-4.7-1-7.3-1s-4.8,0.3-7.2,1
			c-1,0.3-1.8-0.5-1.8-1.5v-12c0-1.8-1.9-3.3-3.8-3.1c-1.5,0.1-3.1,1.6-3.1,3.2v17.1C13.2,25,7.8,33.5,7.8,43.2s5.5,18.3,12.5,23.4
			v17.3c0,1.8,1.9,3.3,3.8,3.1c1.6-0.2,3.2-1.6,3.2-3.2v-12c0-1,0.8-1.8,1.8-1.5c3.1,0.9,6.4,1.2,9.9,0.9c12.1-1.1,22-10,24.7-21.5
			c0.1-0.5,0.6-0.7,1.1-0.5c0.3,0.2,0.8,0.2,1.2,0.3c1.8,0.1,3.3-1.5,3.3-3.3v-6C69.2,38.5,67.8,37,65.9,37z M36.2,65.2
			c-12.1,0-21.9-9.8-21.9-21.9s9.8-21.9,21.9-21.9s21.9,9.8,21.9,21.9S48.3,65.2,36.2,65.2z"/>
	</g>
	<g class="st0">
		<g class="st2">
			<path class="st3" d="M72.2,21.4H53.4c-0.9,0-1.6-0.7-1.6-1.6V15c0-3.5-2.8-6.2-6.2-6.2H26.8c-3.5,0-6.2,2.8-6.2,6.2v4.7
				c0,0.9-0.7,1.6-1.6,1.6h-4.7H8.1H0.3c-2.6,0-4.7,2.1-4.7,4.7v46.9c0,2.6,2.1,4.7,4.7,4.7h71.9c2.6,0,4.7-2.1,4.7-4.7V26
				C76.8,23.5,74.8,21.4,72.2,21.4z M27.7,15.1h17.2c0.4,0,0.8,0.3,0.8,0.8v5.5H26.8v-5.5C26.8,15.5,27.2,15.1,27.7,15.1z
				 M58.2,27.2V44c-7,3.5-14.4,5.4-22,5.4s-15-1.9-22-5.4V27.2H58.2z M2.2,71.2v-44h6v44H2.2z M14.2,51c7,3.1,14.4,4.7,22,4.7
				s15-1.6,22-4.7v20.2h-44V51z M70.2,71.2h-6v-44h6V71.2z"/>
			<rect x="33.2" y="34.2" class="st3" width="6" height="9"/>
		</g>
	</g>
	<g class="st0">
		<g class="st2">
			<path class="st3" d="M56.6,40.2H25.3c-0.9,0-1.6-0.7-1.6-1.6V24.9c0-6.7,5.2-12.5,11.9-12.8c7.2-0.4,13.1,5.4,13.1,12.5v6.1
				c0,1.6,1.2,3.1,2.8,3.2c1.9,0.2,3.4-1.3,3.4-3.1V25c0-10.5-8.6-19.4-19.1-19.2c-10.1,0.2-18.4,8.5-18.4,18.7v14.1
				c0,0.9-0.7,1.6-1.6,1.6l0,0c-2.6,0-4.7,2.1-4.7,4.7v34.4c0,2.6,2.1,4.7,4.7,4.7h40.6c2.6,0,4.7-2.1,4.7-4.7V44.8
				C61.2,42.2,59.2,40.2,56.6,40.2z M54.2,77.7h-36c-0.4,0-0.8-0.3-0.8-0.8V47.2c0-0.4,0.3-0.8,0.8-0.8h36c0.4,0,0.8,0.3,0.8,0.8
				v29.7C55.1,77.2,54.7,77.7,54.2,77.7z"/>
			<path class="st3" d="M36.2,55.8L36.2,55.8c-1.7,0-3.1,1.4-3.1,3.1v9.4h6.2v-9.4C39.3,57.2,38,55.8,36.2,55.8z"/>
		</g>
	</g>
	<g class="st0">
		<path class="st1" d="M45.7,46.2c0,1.7-1.4,3-3.1,3h-6.3c-1.7,0-3-1.1-3-2.9v-9.4c0-1.7,1.3-3.1,3-3.1s3,1.4,3,3.1v6.3h3.2
			C44.2,43.2,45.7,44.5,45.7,46.2z M67.2,30.8v9.4c0,1.7-1.1,3.1-2.9,3.1h-3.1v15.6c0,4.8-2.7,9-6.7,11.1l-0.1,0.7
			c-1.5,3-2.1,6.4-2.1,9.8v3.5c0,0.9-0.6,1.7-1.2,2.3c-0.5,0.4-4.8,3.9-14.7,3.9c-9.7,0-14.3-3.5-14.7-3.9c-0.7-0.6-1.3-1.5-1.3-2.4
			v-3.5c0-3.4-0.6-6.8-2.1-9.8l-0.2-0.7c-4-2.1-6.6-6.3-6.6-11.1V27.7c0-4.8,2.7-9,6.7-11.1l0.1-0.7c1.5-3,2.1-6.4,2.1-9.8V2.6
			c0-0.8,0.5-1.6,1.1-2.2c0.7-0.7,4.6-4,14.8-4s14.3,3.4,14.9,4c0.4,0.6,1,1.3,1,2.2v3.5c0,3.4,0.6,6.8,2.1,9.8l0.2,0.5
			c4.1,2,6.7,6.8,6.7,10.8h3.1C66.2,27.2,67.2,29,67.2,30.8z M27.2,6.1c0,2.4-0.5,4.8-1.1,7.1c-0.3,1,0.3,2,1.3,2h17.6
			c1,0,1.6-1,1.3-2c-0.6-2.3-1.1-4.7-1.1-7.1V4.2c-1-0.7-3.9-1.7-9-1.7s-8,1-9,1.7C27.3,4.2,27.3,6.1,27.2,6.1z M45.2,80.4
			c0-2.4,0.5-4.8,1.1-7.1c0.3-1-0.3-2-1.3-2H27.5c-1,0-1.6,1-1.3,2c0.6,2.3,1.1,4.7,1.1,7.1v1.7c1,0.7,4.1,1.8,9,1.8s8-1,9-1.7V80.4
			z M55.2,27.5c0-3.5-2.8-6.2-6.2-6.2H23.5c-3.5,0-6.2,2.8-6.2,6.2v31.5c0,3.5,2.8,6.2,6.2,6.2H49c3.5,0,6.2-2.8,6.2-6.2L55.2,27.5
			L55.2,27.5z"/>
	</g>
	<g class="st0">
		<g class="st2">
			<rect x="52.2" y="46.2" class="st3" width="6" height="6"/>
			<path class="st3" d="M69.8,33.8h-2.3V23c0-2.6-2.1-4.7-4.7-4.7H8.2c-1.6,0-3.1-1.2-3.2-2.8c-0.2-1.9,1.3-3.4,3.1-3.4h53
				c1.6,0,3.1-1.2,3.2-2.8c0.2-1.9-1.3-3.4-3.1-3.4H8.4c-4.9,0-9.1,3.6-9.6,8.5C-1.8,20,2.6,24.7,8,24.7h53.2v7.8
				c0,0.9-0.7,1.6-1.6,1.6h-7.4c-8.5,0-15.7,6.6-16,15C36,57.9,43,65.2,51.8,65.2h7.8c0.9,0,1.6,0.7,1.6,1.6v7.8H5V30.8
				c0-1.6-1.2-3.1-2.8-3.2c-1.9-0.2-3.4,1.3-3.4,3.1V76c0,2.6,2.1,4.7,4.7,4.7h59.4c2.6,0,4.7-2.1,4.7-4.7V65.2h2.3
				c2.2,0,3.9-1.7,3.9-3.9V37.8C73.8,35.7,72.1,33.8,69.8,33.8z M66.8,58.8H52.2c-4.9,0-9.1-3.6-9.6-8.5C42.1,44.8,46.5,40,51.9,40
				h14.8c0.4,0,0.8,0.3,0.8,0.8v17.2C67.4,58.6,67.2,58.8,66.8,58.8z"/>
		</g>
	</g>
	<g class="st0">
		<path class="st1" d="M8.1,59.2c0-1.7,1.4-3,3.1-3h12.5c1.7,0,3.1,1.3,3.1,3s-1.4,3-3.1,3H11.2C9.5,62.2,8.1,60.9,8.1,59.2z
			 M36.2,62.2h6.2c1.7,0,3.1-1.3,3.1-3s-1.4-3-3.1-3h-6.2c-1.7,0-3.1,1.3-3.1,3S34.5,62.2,36.2,62.2z M58.2,62.2h3.1
			c1.7,0,3.1-1.3,3.1-3s-1.4-3-3.1-3h-3.1c-1.7,0-3.1,1.3-3.1,3S56.3,62.2,58.2,62.2z M77.2,21.4v2.3v0.8v3.1v2.3v43
			c0,2.6-2.5,4.3-5.1,4.3H0.4c-2.6,0.1-5.1-1.6-5.1-4.2v-43v-2.3v-3.1v-1.6v-1.6c0-5.1,4.6-9.1,9.8-9.1h62.5
			C72.7,12.2,77.2,16.2,77.2,21.4z M70.2,40.2h-68v31h68V40.2z M70.2,23.8v-2.3c0-1.7-1-3.1-2.8-3.1H5c-1.8-0.1-2.8,1.3-2.8,3V23
			v1.6v2.7h68v-2.8V23.8z"/>
	</g>
</g>
</svg>
