<?xml version="1.0" encoding="utf-8"?>
<!-- Generator: Adobe Illustrator 21.1.0, SVG Export Plug-In . SVG Version: 6.00 Build 0)  -->
<svg version="1.1"
	 id="Calque_1" xmlns:cc="http://creativecommons.org/ns#" xmlns:dc="http://purl.org/dc/elements/1.1/" xmlns:inkscape="http://www.inkscape.org/namespaces/inkscape" xmlns:rdf="http://www.w3.org/1999/02/22-rdf-syntax-ns#" xmlns:sodipodi="http://sodipodi.sourceforge.net/DTD/sodipodi-0.dtd" xmlns:svg="http://www.w3.org/2000/svg"
	 xmlns="http://www.w3.org/2000/svg" xmlns:xlink="http://www.w3.org/1999/xlink" x="0px" y="0px" viewBox="0 0 72.2 71.8"
	 style="enable-background:new 0 0 72.2 71.8;" xml:space="preserve">
<style type="text/css">
	.st0{fill:#808080;}
</style>
<g transform="translate(0,-952.36218)">
	<path class="st0" d="M22.5,955.9c-2.8,0-5,2.2-5,5v4c0,0.6,0.4,1,1,1c0.6,0,1-0.4,1-1c0,0,0,0,0,0v-4c0-1.7,1.3-3,3-3h40
		c1.7,0,3,1.3,3,3v40c0,1.7-1.3,3-3,3h-4c-0.6,0-1,0.4-1,1c0,0.6,0.4,1,1,1c0,0,0,0,0,0h4c2.8,0,5-2.2,5-5v-40c0-2.8-2.2-5-5-5H22.5
		z M8.5,969.9c-2.8,0-5,2.2-5,5v40c0,2.8,2.2,5,5,5h40c2.8,0,5-2.2,5-5v-40c0-2.8-2.2-5-5-5H8.5z M8.5,971.9h40c1.7,0,3,1.3,3,3v40
		c0,1.7-1.3,3-3,3h-40c-1.7,0-3-1.3-3-3v-40C5.5,973.2,6.8,971.9,8.5,971.9z"/>
</g>
</svg>
