<?xml version="1.0" encoding="utf-8"?>
<!-- Generator: Adobe Illustrator 21.1.0, SVG Export Plug-In . SVG Version: 6.00 Build 0)  -->
<svg version="1.1" id="Calque_1" xmlns="http://www.w3.org/2000/svg" xmlns:xlink="http://www.w3.org/1999/xlink" x="0px" y="0px"
	 viewBox="0 0 503 60" style="enable-background:new 0 0 503 60;" xml:space="preserve">
<style type="text/css">
	.st0{fill:#0064D7;}
</style>
<g>
	<path class="st0" d="M32.2,14.7H15.5v9.1h15.8v12H15.5V45h16.8v12H1.4V2.7h30.9V14.7z"/>
	<path class="st0" d="M57.9,28.1L41,2.7h17.4l7.3,14l9.1-14h17.4L74.4,28.1L94.6,57H77.4L66.5,39.3L53.8,57H36.7L57.9,28.1z"/>
	<path class="st0" d="M114.4,57h-14.1V2.7h22.5c6.1,0,10.8,1.6,14,4.8c3.2,3.2,4.9,7.6,4.9,13.4c0,5.8-1.6,10.2-4.9,13.4
		c-3.2,3.2-7.9,4.8-14,4.8h-8.4V57z M114.4,27.6h4.7c5.2,0,7.8-2.3,7.8-6.8c0-4.5-2.6-6.8-7.8-6.8h-4.7V27.6z"/>
	<path class="st0" d="M180,14.7h-16.8v9.1H179v12h-15.8V45H180v12h-30.9V2.7H180V14.7z"/>
	<path class="st0" d="M235.3,57h-17.6l-13.5-20.9V57h-14.1V2.7h22c3,0,5.7,0.4,7.9,1.3c2.3,0.9,4.1,2.1,5.6,3.6
		c1.5,1.5,2.6,3.3,3.3,5.3c0.7,2,1.1,4.2,1.1,6.5c0,4.1-1,7.5-3,10c-2,2.6-4.9,4.3-8.8,5.2L235.3,57z M204.2,27h2.7
		c2.8,0,4.9-0.6,6.4-1.7c1.5-1.2,2.2-2.8,2.2-5c0-2.2-0.7-3.8-2.2-5c-1.5-1.2-3.6-1.7-6.4-1.7h-2.7V27z"/>
	<path class="st0" d="M255.3,2.7V57h-14.1V2.7H255.3z"/>
	<path class="st0" d="M297.6,14.7h-16.8v9.1h15.8v12h-15.8V45h16.8v12h-30.9V2.7h30.9V14.7z"/>
	<path class="st0" d="M307.7,57V2.7h14.1l26.1,33.2V2.7h14V57h-14l-26.1-33.2V57H307.7z"/>
	<path class="st0" d="M413.1,20.9c-3.3-4-7.3-6-12.1-6c-2.1,0-4.1,0.4-5.9,1.2c-1.8,0.8-3.3,1.8-4.6,3.1c-1.3,1.3-2.3,2.9-3.1,4.7
		c-0.7,1.8-1.1,3.8-1.1,5.9c0,2.2,0.4,4.2,1.1,6c0.7,1.8,1.8,3.4,3.1,4.8c1.3,1.3,2.9,2.4,4.6,3.2c1.8,0.8,3.7,1.2,5.8,1.2
		c4.5,0,8.6-1.9,12.2-5.8v16.7l-1.4,0.5c-2.2,0.8-4.2,1.3-6,1.7c-1.9,0.4-3.7,0.5-5.5,0.5c-3.7,0-7.3-0.7-10.8-2.1
		c-3.4-1.4-6.5-3.4-9.1-6c-2.6-2.6-4.7-5.6-6.3-9.1s-2.4-7.4-2.4-11.6c0-4.2,0.8-8,2.3-11.5c1.6-3.5,3.6-6.5,6.3-9s5.7-4.5,9.1-5.9
		c3.5-1.4,7.1-2.1,10.9-2.1c2.2,0,4.3,0.2,6.4,0.7c2.1,0.5,4.3,1.2,6.6,2.1V20.9z"/>
	<path class="st0" d="M452.9,14.7h-16.8v9.1H452v12h-15.8V45h16.8v12H422V2.7h30.9V14.7z"/>
	<path class="st0" d="M492.9,16.6c-1.5-1.2-3.1-2.2-4.6-2.8c-1.5-0.6-3-0.9-4.5-0.9c-1.8,0-3.3,0.4-4.5,1.3c-1.2,0.9-1.7,2-1.7,3.4
		c0,1,0.3,1.8,0.9,2.4c0.6,0.6,1.3,1.2,2.3,1.6c0.9,0.5,2,0.9,3.2,1.2c1.2,0.3,2.3,0.7,3.5,1.1c4.6,1.5,8,3.6,10.1,6.2
		c2.1,2.6,3.2,5.9,3.2,10c0,2.8-0.5,5.3-1.4,7.6c-0.9,2.3-2.3,4.2-4.1,5.8c-1.8,1.6-4,2.9-6.6,3.7c-2.6,0.9-5.6,1.3-8.9,1.3
		c-6.9,0-13.2-2-19.1-6.1l6-11.4c2.1,1.9,4.2,3.3,6.3,4.2c2.1,0.9,4.1,1.4,6.1,1.4c2.3,0,4-0.5,5.1-1.6c1.1-1.1,1.7-2.3,1.7-3.6
		c0-0.8-0.1-1.5-0.4-2.1c-0.3-0.6-0.8-1.2-1.4-1.7c-0.7-0.5-1.5-1-2.6-1.4s-2.4-0.9-3.9-1.4c-1.8-0.6-3.6-1.2-5.4-1.9
		c-1.8-0.7-3.3-1.6-4.7-2.8c-1.4-1.2-2.5-2.6-3.3-4.4c-0.8-1.8-1.3-4-1.3-6.7c0-2.7,0.4-5.1,1.3-7.3c0.9-2.2,2.1-4.1,3.7-5.6
		c1.6-1.6,3.6-2.8,5.9-3.6c2.3-0.9,4.9-1.3,7.8-1.3c2.7,0,5.5,0.4,8.4,1.1c2.9,0.7,5.7,1.8,8.4,3.3L492.9,16.6z"/>
</g>
</svg>
